<svg xmlns="http://www.w3.org/2000/svg" version="1.1" xmlns:xlink="http://www.w3.org/1999/xlink" xmlns:svgjs="http://svgjs.dev/svgjs" width="1500" height="1500" viewBox="0 0 1500 1500"><rect width="1500" height="1500" fill="#ffffff"></rect><g transform="matrix(0.6666666666666666,0,0,0.6666666666666666,248.8010335223796,139.83678234460967)"><svg viewBox="0 0 231 281" data-background-color="#ffffff" preserveAspectRatio="xMidYMid meet" height="1824" width="1500" xmlns="http://www.w3.org/2000/svg" xmlns:xlink="http://www.w3.org/1999/xlink"><g id="tight-bounds" transform="matrix(1,0,0,1,0.2769612563303099,0.5001117095685288)"><svg viewBox="0 0 230.4460774873394 280" height="280" width="230.4460774873394"><g><svg viewBox="0 0 278.2696 338.1072433497187" height="280" width="230.4460774873394"><g><svg viewBox="0 0 278.2696 338.1072433497187" height="338.1072433497187" width="278.2696"><g id="textblocktransform"><svg viewBox="0 0 278.2696 338.1072433497187" height="338.1072433497187" width="278.2696" id="textblock"><g><svg viewBox="0 0 278.2696 278.2696" height="278.2696" width="278.2696"><g transform="matrix(1,0,0,1,83.38434233854738,83.38434233854738)"><svg viewBox="0 0 111.50091532290527 111.50091532290527" height="111.50091532290527" width="111.50091532290527"><g id="icon-0"><svg xmlns="http://www.w3.org/2000/svg" xmlns:xlink="http://www.w3.org/1999/xlink" version="1.1" x="0" y="0" viewBox="0 0 48 48" enable-background="new 0 0 48 48" xml:space="preserve" height="111.50091532290527" width="111.50091532290527" class="icon-jxe-0" data-fill-palette-color="accent" id="jxe-0"><g fill="#f4a424" data-fill-palette-color="accent"><path d="M6 19.3H30C30.6 19.3 31 18.9 31 18.3V6.3C31 5.7 30.6 5.3 30 5.3H6C5.4 5.3 5 5.7 5 6.3V18.3C5 18.9 5.4 19.3 6 19.3M7 7.3H29V17.3H7z" fill="#000000" data-fill-palette-color="accent"></path><path d="M8.6 24.9H5.7C5.1 24.9 4.7 25.3 4.7 25.9S5.1 26.9 5.7 26.9H8.6C9.2 26.9 9.6 26.5 9.6 25.9S9.2 24.9 8.6 24.9" fill="#000000" data-fill-palette-color="accent"></path><path d="M15.8 24.9H13C12.4 24.9 12 25.3 12 25.9S12.4 26.9 13 26.9H15.9C16.5 26.9 16.9 26.5 16.9 25.9S16.4 24.9 15.8 24.9" fill="#000000" data-fill-palette-color="accent"></path><path d="M8.6 30H5.7C5.1 30 4.7 30.4 4.7 31S5.1 32 5.7 32H8.6C9.2 32 9.6 31.6 9.6 31S9.2 30 8.6 30" fill="#000000" data-fill-palette-color="accent"></path><path d="M15.8 30H13C12.4 30 12 30.4 12 31S12.4 32 13 32H15.9C16.5 32 16.9 31.6 16.9 31S16.4 30 15.8 30" fill="#000000" data-fill-palette-color="accent"></path><path d="M8.6 35.2H5.7C5.1 35.2 4.7 35.6 4.7 36.2S5.1 37.2 5.7 37.2H8.6C9.2 37.2 9.6 36.8 9.6 36.2S9.2 35.2 8.6 35.2" fill="#000000" data-fill-palette-color="accent"></path><path d="M15.8 35.2H13C12.4 35.2 12 35.6 12 36.2S12.4 37.2 13 37.2H15.9C16.5 37.2 16.9 36.8 16.9 36.2S16.4 35.2 15.8 35.2" fill="#000000" data-fill-palette-color="accent"></path><path d="M8.6 40.3H5.7C5.1 40.3 4.7 40.7 4.7 41.3S5.1 42.3 5.7 42.3H8.6C9.2 42.3 9.6 41.9 9.6 41.3S9.2 40.3 8.6 40.3" fill="#000000" data-fill-palette-color="accent"></path><path d="M15.8 40.3H13C12.4 40.3 12 40.7 12 41.3S12.4 42.3 13 42.3H15.9C16.5 42.3 16.9 41.9 16.9 41.3S16.4 40.3 15.8 40.3" fill="#000000" data-fill-palette-color="accent"></path><path d="M48 34.4C48 27.4 42.7 21.7 36 20.9V1C36 0.4 35.6 0 35 0H1C0.4 0 0 0.4 0 1V47C0 47.6 0.4 48 1 48H35.2C42.3 47.6 48 41.6 48 34.4M2 46V2H34V20.8C26.7 21 20.8 27 20.8 34.4 20.8 39.3 23.4 43.6 27.3 46zM34.4 46C28 46 22.8 40.8 22.8 34.4S28 22.8 34.4 22.8 46 28 46 34.4 40.8 46 34.4 46" fill="#000000" data-fill-palette-color="accent"></path><path d="M34.4 28.4C35.8 28.4 36.9 29.5 36.9 30.9 36.9 31.5 37.3 31.9 37.9 31.9S38.9 31.5 38.9 30.9C38.9 28.7 37.4 27 35.4 26.5V25.7C35.4 25.1 35 24.7 34.4 24.7S33.4 25.1 33.4 25.7V26.5C31.4 27 29.9 28.8 29.9 30.9 29.9 33.4 31.9 35.4 34.4 35.4 35.8 35.4 36.9 36.5 36.9 37.9S35.8 40.4 34.4 40.4 31.9 39.3 31.9 37.9C31.9 37.3 31.5 36.9 30.9 36.9S29.9 37.3 29.9 37.9C29.9 40.1 31.4 41.8 33.4 42.3V43.1C33.4 43.7 33.8 44.1 34.4 44.1S35.4 43.7 35.4 43.1V42.3C37.4 41.8 38.9 40 38.9 37.9 38.9 35.4 36.9 33.4 34.4 33.4 33 33.4 31.9 32.3 31.9 30.9S33 28.4 34.4 28.4" fill="#000000" data-fill-palette-color="accent"></path></g></svg></g></svg></g><g id="text-0"><path d="M7.363 90.973v0c1.958 0.126 3.729 0.324 5.311 0.596 1.587 0.28 3.09 0.645 4.509 1.094v0c4.237 1.341 7.214 2.921 8.93 4.739 1.712 1.809 2.198 3.882 1.458 6.219v0c-0.554 1.751-1.778 2.799-3.671 3.146-1.899 0.344-4.509-0.009-7.828-1.06v0c-1.718-0.544-3.474-1.254-5.266-2.129-1.799-0.877-3.216-1.695-4.251-2.452v0c-0.005-0.166 0.015-0.375 0.058-0.626 0.052-0.256 0.11-0.484 0.175-0.686v0c0.054-0.169 0.114-0.326 0.18-0.469 0.067-0.144 0.137-0.275 0.211-0.395v0c1.589 0.954 3.144 1.786 4.667 2.497 1.524 0.704 2.976 1.275 4.356 1.712v0c3.079 0.975 5.384 1.429 6.916 1.362 1.534-0.073 2.483-0.686 2.848-1.837v0c0.433-1.367-0.068-2.682-1.501-3.945-1.427-1.261-3.644-2.367-6.651-3.319v0c-1.81-0.573-3.553-1.014-5.232-1.323-1.68-0.303-3.531-0.509-5.551-0.619v0c-0.006-0.367 0.023-0.763 0.086-1.186 0.063-0.424 0.144-0.864 0.246-1.319z" fill="#000000" data-fill-palette-color="primary"></path><path d="M25.644 88.337v0c0.835 0.389 1.791 0.812 2.866 1.269 1.069 0.453 1.857 0.768 2.363 0.943v0c-0.039 0.261-0.104 0.562-0.195 0.903-0.1 0.345-0.221 0.669-0.363 0.972v0c-1.92-0.744-4.383-1.764-7.387-3.059-3.007-1.289-5.538-2.412-7.593-3.37v0c-0.009-0.223 0.019-0.469 0.085-0.74 0.06-0.273 0.152-0.543 0.276-0.809v0c0.084-0.179 0.174-0.348 0.27-0.507 0.099-0.165 0.208-0.325 0.326-0.481v0c0.298 0.184 0.79 0.462 1.475 0.835 0.679 0.369 1.119 0.612 1.321 0.729v0c-0.704-1.044-1.141-2.004-1.312-2.883-0.171-0.878-0.086-1.682 0.255-2.412v0c0.511-1.095 1.286-1.709 2.327-1.842 1.047-0.13 2.431 0.207 4.151 1.009v0c1.38 0.643 2.881 1.479 4.504 2.506 1.616 1.025 2.853 1.887 3.709 2.587v0c-0.145 0.279-0.329 0.577-0.553 0.895-0.223 0.318-0.448 0.597-0.673 0.839v0c-1.589-1.132-3.025-2.084-4.307-2.855-1.283-0.771-2.518-1.434-3.706-1.988v0c-1.12-0.522-1.991-0.762-2.613-0.721-0.625 0.048-1.081 0.381-1.37 1v0c-0.291 0.625-0.27 1.388 0.063 2.289 0.339 0.904 0.948 1.828 1.826 2.772v0c1.257 0.631 2.176 1.093 2.755 1.386 0.573 0.29 1.073 0.534 1.5 0.733z" fill="#000000" data-fill-palette-color="primary"></path><path d="M33.447 71.431v0c0.198-0.247 0.413-0.476 0.644-0.687 0.235-0.216 0.466-0.38 0.693-0.49v0c1.389 0.883 2.318 1.832 2.79 2.845 0.475 1.007 0.437 1.963-0.113 2.867v0c-0.642 1.056-1.722 1.486-3.24 1.291-1.522-0.19-3.453-0.995-5.793-2.416v0c-0.77-0.468-1.526-0.959-2.268-1.474-0.738-0.52-1.48-1.075-2.226-1.663v0c-0.203 0.308-0.425 0.601-0.665 0.878-0.24 0.277-0.49 0.557-0.749 0.839v0c-0.223-0.159-0.429-0.333-0.619-0.519-0.188-0.178-0.345-0.365-0.473-0.563v0c0.256-0.276 0.496-0.541 0.723-0.795 0.22-0.258 0.424-0.521 0.612-0.791v0c-0.389-0.332-0.809-0.707-1.259-1.124-0.44-0.419-0.98-0.951-1.619-1.595v0c0.224-0.343 0.473-0.667 0.746-0.972 0.264-0.303 0.543-0.585 0.837-0.846v0c0.446 0.502 0.887 0.978 1.326 1.428 0.438 0.45 0.874 0.862 1.309 1.239v0c0.425-0.66 0.819-1.316 1.182-1.966 0.363-0.65 0.701-1.292 1.013-1.925v0c0.169 0.103 0.346 0.238 0.532 0.407 0.179 0.165 0.367 0.355 0.564 0.57v0c-0.312 0.658-0.651 1.314-1.017 1.971-0.364 0.665-0.748 1.311-1.152 1.936v0c0.717 0.595 1.464 1.173 2.242 1.733 0.78 0.57 1.561 1.092 2.343 1.567v0c1.774 1.077 3.204 1.767 4.292 2.068 1.09 0.31 1.781 0.223 2.076-0.261v0c0.276-0.455 0.193-0.969-0.25-1.542-0.439-0.578-1.267-1.249-2.482-2.01z" fill="#000000" data-fill-palette-color="primary"></path><path d="M35.476 63.131v0c0.501-0.331 0.993-0.724 1.477-1.179 0.488-0.461 0.952-0.979 1.39-1.555v0c0.116-0.152 0.246-0.34 0.392-0.564 0.145-0.224 0.236-0.395 0.274-0.512v0c-0.356-0.468-0.703-0.874-1.042-1.219-0.344-0.348-0.671-0.64-0.981-0.875v0c-0.684-0.521-1.263-0.782-1.735-0.782-0.463-0.001-0.885 0.249-1.265 0.749v0c-0.496 0.652-0.603 1.519-0.321 2.601 0.287 1.077 0.89 2.189 1.811 3.336zM42.787 60.461v0c0.239-0.213 0.527-0.393 0.863-0.54 0.336-0.148 0.668-0.246 0.997-0.296v0c0.663 0.977 1 2.191 1.012 3.641 0.021 1.449-0.344 2.665-1.093 3.648v0c-0.96 1.26-2.208 1.879-3.746 1.858-1.533-0.026-3.125-0.669-4.776-1.926v0c-1.852-1.411-3.122-3.197-3.809-5.36-0.697-2.161-0.499-3.959 0.594-5.393v0c0.699-0.918 1.547-1.422 2.543-1.513 0.991-0.095 1.986 0.238 2.985 1v0c0.527 0.401 1.022 0.856 1.485 1.363 0.459 0.513 0.864 1.04 1.215 1.582v0c-0.127 0.392-0.333 0.832-0.618 1.318-0.281 0.481-0.671 1.05-1.172 1.708v0c-0.381 0.5-0.813 0.977-1.297 1.432-0.479 0.459-0.989 0.864-1.531 1.216v0c0.164 0.168 0.331 0.325 0.502 0.473 0.175 0.142 0.35 0.279 0.523 0.411v0c1.233 0.939 2.39 1.482 3.472 1.628 1.082 0.146 1.894-0.137 2.436-0.848v0c0.476-0.625 0.658-1.473 0.547-2.544-0.105-1.067-0.483-2.02-1.131-2.858z" fill="#000000" data-fill-palette-color="primary"></path><path d="M52.049 57.647v0c-0.068 0.152-0.159 0.319-0.275 0.501-0.12 0.187-0.252 0.358-0.397 0.512v0c-0.093 0.128-0.191 0.233-0.295 0.313-0.099 0.075-0.206 0.144-0.32 0.205v0c-2.142-1.35-4.264-2.896-6.365-4.638-2.091-1.743-4.097-3.611-6.017-5.605v0c0.054-0.137 0.139-0.287 0.254-0.449 0.106-0.163 0.295-0.388 0.566-0.677v0c0.136-0.144 0.279-0.272 0.431-0.382 0.146-0.116 0.307-0.227 0.482-0.334v0c0.532 0.67 0.994 1.225 1.384 1.668 0.386 0.447 0.763 0.858 1.132 1.233v0c-0.8-1.371-1.266-2.63-1.398-3.775-0.137-1.15 0.071-2.019 0.623-2.606v0c0.538-0.572 1.145-0.793 1.82-0.664 0.68 0.124 1.455 0.596 2.325 1.414v0c0.169 0.159 0.346 0.34 0.531 0.542 0.185 0.202 0.385 0.418 0.6 0.648v0c-0.114 0.211-0.274 0.445-0.479 0.703-0.2 0.252-0.434 0.511-0.701 0.775v0c-0.186-0.231-0.369-0.445-0.548-0.643-0.18-0.197-0.362-0.383-0.546-0.555v0c-0.457-0.43-0.849-0.691-1.176-0.783-0.331-0.096-0.605-0.03-0.82 0.199v0c-0.454 0.482-0.4 1.447 0.161 2.893 0.566 1.441 1.526 3.071 2.881 4.889v0c0.858 0.722 1.793 1.467 2.806 2.233 1.014 0.766 2.127 1.56 3.341 2.383z" fill="#000000" data-fill-palette-color="primary"></path><path d="M56.496 46.444v0c0.603 0.697 1.303 1.473 2.098 2.329 0.791 0.851 1.381 1.459 1.771 1.826v0c-0.142 0.222-0.324 0.47-0.547 0.744-0.233 0.274-0.475 0.52-0.728 0.739v0c-1.449-1.464-3.28-3.401-5.493-5.81-2.218-2.405-4.07-4.464-5.554-6.177v0c0.083-0.207 0.209-0.421 0.38-0.641 0.166-0.225 0.36-0.434 0.582-0.626v0c0.15-0.13 0.301-0.247 0.454-0.352 0.158-0.11 0.323-0.212 0.494-0.306v0c0.197 0.29 0.532 0.745 1.006 1.365 0.469 0.614 0.772 1.016 0.908 1.205v0c-0.216-1.24-0.223-2.296-0.02-3.167 0.203-0.871 0.609-1.57 1.218-2.098v0c0.913-0.791 1.872-1.035 2.876-0.73 1.009 0.31 2.134 1.182 3.377 2.616v0c0.997 1.151 2.026 2.527 3.087 4.127 1.057 1.596 1.833 2.888 2.329 3.877v0c-0.246 0.195-0.536 0.392-0.87 0.591-0.334 0.199-0.653 0.362-0.958 0.491v0c-0.988-1.683-1.909-3.138-2.765-4.366-0.856-1.228-1.713-2.337-2.571-3.328v0c-0.809-0.934-1.506-1.509-2.09-1.725-0.59-0.212-1.143-0.094-1.659 0.352v0c-0.521 0.451-0.814 1.156-0.878 2.115-0.059 0.964 0.119 2.056 0.535 3.277v0c0.89 1.09 1.539 1.887 1.948 2.39 0.405 0.499 0.761 0.926 1.07 1.282z" fill="#000000" data-fill-palette-color="primary"></path><path d="M65.558 33.873v0c0.581-0.152 1.173-0.366 1.778-0.642 0.61-0.279 1.216-0.621 1.817-1.024v0c0.159-0.107 0.343-0.243 0.552-0.409 0.209-0.166 0.351-0.298 0.424-0.396v0c-0.186-0.558-0.384-1.054-0.594-1.489-0.214-0.44-0.43-0.822-0.647-1.145v0c-0.48-0.714-0.944-1.146-1.392-1.297-0.438-0.15-0.918-0.049-1.439 0.301v0c-0.68 0.457-1.06 1.244-1.14 2.36-0.075 1.112 0.139 2.359 0.641 3.741zM73.34 33.697v0c0.295-0.124 0.625-0.202 0.99-0.234 0.365-0.032 0.712-0.018 1.04 0.041v0c0.314 1.139 0.242 2.396-0.214 3.772-0.447 1.379-1.183 2.413-2.207 3.103v0c-1.314 0.884-2.696 1.069-4.145 0.555-1.443-0.518-2.744-1.638-3.903-3.361v0c-1.3-1.932-1.927-4.032-1.882-6.3 0.036-2.271 0.801-3.909 2.297-4.915v0c0.957-0.644 1.922-0.849 2.894-0.615 0.969 0.229 1.804 0.864 2.505 1.907v0c0.37 0.549 0.692 1.139 0.968 1.768 0.27 0.633 0.484 1.263 0.641 1.889v0c-0.247 0.331-0.583 0.68-1.009 1.049-0.421 0.365-0.974 0.779-1.659 1.24v0c-0.521 0.351-1.084 0.664-1.689 0.939-0.601 0.281-1.214 0.5-1.841 0.659v0c0.101 0.212 0.209 0.415 0.324 0.609 0.12 0.191 0.241 0.377 0.363 0.558v0c0.865 1.286 1.786 2.172 2.764 2.658 0.977 0.486 1.837 0.48 2.579-0.02v0c0.651-0.438 1.097-1.183 1.336-2.232 0.244-1.044 0.193-2.068-0.152-3.07z" fill="#000000" data-fill-palette-color="primary"></path><path d="M85.494 21.879v0c0.733 1.404 1.381 3.161 1.943 5.27 0.553 2.107 0.878 3.797 0.974 5.072v0c-0.316 0.119-0.638 0.21-0.966 0.274-0.338 0.061-0.673 0.09-1.007 0.086v0c-0.207-1.679-0.571-3.364-1.092-5.056-0.521-1.692-1.136-3.215-1.844-4.571v0c-0.708-1.356-1.337-2.236-1.888-2.642-0.557-0.402-1.174-0.427-1.852-0.072v0c-0.708 0.37-1.205 1.13-1.489 2.279-0.282 1.156-0.266 2.5 0.048 4.031v0l0.042 0.081c0.509 0.974 1.185 2.158 2.028 3.551 0.837 1.396 1.47 2.402 1.899 3.017v0c-0.162 0.146-0.408 0.332-0.737 0.558-0.32 0.229-0.637 0.425-0.951 0.59v0c-1.088-1.758-2.086-3.42-2.997-4.986-0.904-1.569-1.71-3.031-2.418-4.387v0c-0.733-1.404-1.53-3.056-2.391-4.955-0.864-1.906-1.462-3.346-1.794-4.32v0c0.161-0.238 0.346-0.45 0.557-0.638 0.217-0.19 0.446-0.348 0.688-0.474v0c0.169-0.088 0.385-0.163 0.647-0.223 0.256-0.056 0.421-0.093 0.497-0.109v0c0.411 1.465 0.923 3.015 1.538 4.65 0.606 1.632 1.275 3.231 2.009 4.797v0c0.011-1.292 0.225-2.386 0.643-3.282 0.409-0.899 0.988-1.544 1.738-1.936v0c1.21-0.632 2.306-0.68 3.287-0.145 0.974 0.539 1.937 1.719 2.888 3.54z" fill="#000000" data-fill-palette-color="primary"></path><path d="M93.62 23.802v0c0.371 1.071 0.745 2.087 1.121 3.047 0.376 0.961 0.663 1.642 0.86 2.043v0c-0.212 0.16-0.472 0.326-0.781 0.499-0.318 0.168-0.634 0.307-0.951 0.416v0c-0.885-2.136-1.905-4.694-3.06-7.675-1.154-2.975-2.074-5.452-2.76-7.433v0c0.149-0.153 0.343-0.303 0.58-0.45 0.247-0.143 0.509-0.263 0.786-0.359v0c0.277-0.096 0.496-0.165 0.655-0.206 0.162-0.034 0.323-0.058 0.485-0.07v0c0.045 0.194 0.14 0.569 0.283 1.127 0.145 0.564 0.348 1.306 0.609 2.227v0c0.261-1.081 0.654-1.961 1.177-2.64 0.523-0.68 1.172-1.154 1.945-1.422v0c0.664-0.23 1.271-0.263 1.819-0.1 0.542 0.166 1.047 0.53 1.516 1.09v0c0.247-1.372 0.636-2.471 1.166-3.298 0.53-0.827 1.221-1.388 2.072-1.683v0c1.097-0.38 2.038-0.24 2.823 0.42 0.785 0.66 1.49 1.89 2.113 3.69v0c0.563 1.626 1.049 3.517 1.457 5.673 0.41 2.163 0.671 4.125 0.782 5.885v0c-0.342 0.097-0.711 0.178-1.108 0.243-0.403 0.067-0.749 0.101-1.039 0.1v0c-0.196-2.172-0.475-4.185-0.836-6.04-0.367-1.853-0.833-3.592-1.396-5.217v0c-0.405-1.168-0.826-1.957-1.265-2.369-0.448-0.416-0.975-0.519-1.581-0.308v0c-0.613 0.212-1.111 0.725-1.494 1.537-0.381 0.819-0.602 1.849-0.663 3.091v0c0.129 0.309 0.233 0.569 0.314 0.78 0.08 0.211 0.152 0.406 0.214 0.587v0c0.456 1.316 0.863 2.844 1.22 4.584 0.357 1.74 0.586 3.204 0.687 4.39v0c-0.282 0.083-0.615 0.155-0.998 0.216-0.384 0.061-0.741 0.094-1.071 0.1v0c-0.298-1.985-0.597-3.641-0.898-4.967-0.307-1.324-0.65-2.531-1.027-3.622v0c-0.411-1.187-0.838-1.989-1.279-2.407-0.448-0.416-0.975-0.519-1.581-0.309v0c-0.652 0.226-1.187 0.733-1.608 1.522-0.42 0.789-0.66 1.753-0.72 2.894v0c0.238 0.749 0.48 1.51 0.727 2.285 0.247 0.774 0.482 1.484 0.705 2.129z" fill="#000000" data-fill-palette-color="primary"></path><path d="M113.589 13.352v0c0.593 0.091 1.222 0.13 1.886 0.117 0.671-0.014 1.362-0.087 2.074-0.219v0c0.188-0.035 0.411-0.087 0.669-0.156 0.258-0.069 0.44-0.134 0.547-0.196v0c0.051-0.586 0.066-1.12 0.045-1.602-0.022-0.489-0.068-0.925-0.139-1.307v0c-0.157-0.846-0.411-1.427-0.762-1.744-0.343-0.311-0.823-0.409-1.44-0.294v0c-0.805 0.15-1.466 0.721-1.984 1.713-0.51 0.991-0.809 2.22-0.896 3.688zM120.801 16.28v0c0.32 0.003 0.654 0.062 1.002 0.178 0.348 0.116 0.661 0.266 0.938 0.45v0c-0.164 1.169-0.729 2.295-1.694 3.378-0.957 1.088-2.043 1.745-3.258 1.972v0c-1.557 0.29-2.899-0.089-4.025-1.137-1.119-1.049-1.868-2.593-2.248-4.633v0c-0.426-2.289-0.168-4.465 0.774-6.53 0.934-2.07 2.287-3.27 4.059-3.6v0c1.134-0.211 2.101-0.016 2.901 0.585 0.798 0.594 1.312 1.509 1.542 2.745v0c0.121 0.651 0.183 1.32 0.186 2.007-0.004 0.688-0.057 1.351-0.161 1.988v0c-0.358 0.205-0.805 0.393-1.343 0.563-0.531 0.168-1.203 0.328-2.015 0.479v0c-0.618 0.115-1.258 0.179-1.923 0.191-0.663 0.019-1.313-0.023-1.95-0.126v0c0.009 0.234 0.027 0.464 0.055 0.688 0.035 0.223 0.072 0.442 0.112 0.656v0c0.284 1.524 0.777 2.703 1.481 3.537 0.704 0.834 1.496 1.169 2.375 1.005v0c0.772-0.144 1.476-0.65 2.113-1.518 0.638-0.862 0.998-1.821 1.079-2.878z" fill="#000000" data-fill-palette-color="primary"></path><path d="M128.493 15.535v0c0.068 0.919 0.165 1.959 0.292 3.121 0.126 1.154 0.236 1.995 0.33 2.522v0c-0.246 0.094-0.541 0.184-0.883 0.271-0.35 0.081-0.692 0.133-1.026 0.158v0c-0.288-2.039-0.6-4.686-0.936-7.941-0.343-3.254-0.598-6.011-0.765-8.271v0c0.19-0.117 0.419-0.212 0.688-0.287 0.268-0.081 0.548-0.133 0.84-0.155v0c0.197-0.015 0.389-0.018 0.575-0.012 0.192 0.006 0.385 0.023 0.578 0.05v0c-0.015 0.35-0.018 0.915-0.008 1.695 0.009 0.773 0.012 1.276 0.009 1.509v0c0.567-1.124 1.193-1.974 1.875-2.552 0.683-0.578 1.426-0.896 2.23-0.955v0c1.205-0.089 2.12 0.288 2.743 1.132 0.624 0.851 1.006 2.222 1.146 4.115v0c0.112 1.518 0.116 3.236 0.011 5.155-0.105 1.911-0.255 3.411-0.447 4.5v0c-0.314 0.01-0.664-0.006-1.051-0.046-0.386-0.04-0.74-0.099-1.061-0.178v0c0.213-1.939 0.343-3.657 0.39-5.153 0.047-1.496 0.022-2.897-0.075-4.205v0c-0.091-1.232-0.306-2.11-0.646-2.632-0.347-0.522-0.86-0.758-1.541-0.708v0c-0.688 0.051-1.343 0.442-1.968 1.172-0.623 0.737-1.133 1.72-1.528 2.947v0c0.063 1.406 0.108 2.433 0.136 3.081 0.027 0.642 0.058 1.197 0.092 1.667z" fill="#000000" data-fill-palette-color="primary"></path><path d="M146.265 11.7v0c1.364 1.074 2.252 1.978 2.666 2.713 0.407 0.734 0.593 1.531 0.558 2.39v0c-0.055 1.351-0.531 2.448-1.426 3.293-0.896 0.845-2.008 1.24-3.339 1.186v0c-1.392-0.057-2.5-0.605-3.325-1.643-0.832-1.032-1.215-2.37-1.148-4.014v0c0.297-0.083 0.607-0.143 0.93-0.177 0.329-0.034 0.647-0.035 0.953-0.002v0c-0.088 1.308 0.102 2.344 0.57 3.109 0.468 0.764 1.172 1.165 2.113 1.203v0c0.703 0.029 1.275-0.19 1.719-0.657 0.436-0.46 0.67-1.1 0.703-1.918v0c0.027-0.669-0.131-1.297-0.476-1.885-0.351-0.595-1.123-1.368-2.314-2.319v0c-1.41-1.117-2.324-2.06-2.743-2.829-0.419-0.776-0.61-1.62-0.573-2.534v0c0.051-1.235 0.463-2.205 1.236-2.912 0.773-0.699 1.798-1.023 3.074-0.971v0c1.214 0.05 2.151 0.44 2.812 1.171 0.667 0.731 1.105 1.877 1.314 3.436v0c-0.299 0.124-0.6 0.215-0.902 0.271-0.31 0.056-0.629 0.097-0.959 0.125v0c-0.11-1.159-0.355-2.013-0.735-2.562-0.381-0.542-0.923-0.827-1.626-0.856v0c-0.587-0.024-1.058 0.151-1.415 0.526-0.357 0.375-0.549 0.897-0.577 1.565v0c-0.028 0.682 0.141 1.325 0.506 1.928 0.365 0.603 1.166 1.39 2.404 2.363z" fill="#000000" data-fill-palette-color="primary"></path><path d="M164.282 13.489v0c-0.427 2.946-1.372 5.213-2.837 6.802-1.465 1.588-3.187 2.239-5.167 1.952v0c-0.676-0.098-1.278-0.295-1.808-0.593-0.536-0.298-1.022-0.707-1.458-1.225v0c0.093-1.07 0.226-2.344 0.399-3.823 0.179-1.478 0.411-3.197 0.695-5.156v0c0.308-2.128 0.663-4.247 1.064-6.354 0.402-2.108 0.772-3.782 1.111-5.024v0c0.227-0.043 0.475-0.066 0.744-0.068 0.263-0.003 0.559 0.019 0.891 0.067v0c0.155 0.022 0.299 0.054 0.431 0.094 0.132 0.04 0.329 0.11 0.591 0.209v0c-0.329 1.035-0.668 2.228-1.015 3.579-0.353 1.342-0.708 2.819-1.066 4.429v0c0.593-0.666 1.237-1.132 1.931-1.396 0.687-0.266 1.439-0.34 2.256-0.222v0c1.338 0.194 2.283 0.862 2.835 2.004 0.558 1.15 0.692 2.725 0.403 4.725zM155.036 19.745v0c0.206 0.244 0.447 0.437 0.723 0.581 0.277 0.137 0.577 0.228 0.901 0.276v0c1.318 0.191 2.438-0.378 3.362-1.707 0.93-1.328 1.582-3.282 1.956-5.864v0c0.21-1.453 0.155-2.571-0.166-3.356-0.327-0.792-0.916-1.25-1.767-1.373v0c-0.622-0.09-1.272 0.137-1.951 0.68-0.679 0.543-1.283 1.332-1.812 2.366v0c-0.11 0.619-0.219 1.227-0.326 1.825-0.107 0.598-0.202 1.178-0.283 1.739v0c-0.224 1.547-0.373 2.623-0.446 3.226-0.08 0.602-0.144 1.138-0.191 1.607z" fill="#000000" data-fill-palette-color="primary"></path><path d="M170.875 14.765v0c0.495 0.339 1.045 0.647 1.649 0.924 0.611 0.278 1.265 0.512 1.964 0.701v0c0.185 0.05 0.408 0.1 0.67 0.15 0.262 0.05 0.455 0.07 0.578 0.061v0c0.3-0.506 0.545-0.981 0.735-1.424 0.193-0.45 0.34-0.863 0.441-1.239v0c0.225-0.83 0.248-1.464 0.07-1.902-0.174-0.429-0.564-0.726-1.171-0.889v0c-0.791-0.214-1.634 0.014-2.53 0.684-0.889 0.672-1.691 1.65-2.406 2.934zM176.104 20.531v0c0.287 0.141 0.562 0.34 0.826 0.594 0.263 0.255 0.48 0.526 0.65 0.813v0c-0.655 0.983-1.652 1.753-2.991 2.31-1.334 0.565-2.598 0.687-3.791 0.363v0c-1.529-0.414-2.573-1.337-3.133-2.768-0.554-1.43-0.559-3.147-0.017-5.15v0c0.608-2.247 1.784-4.097 3.528-5.549 1.739-1.46 3.479-1.955 5.218-1.484v0c1.114 0.301 1.901 0.896 2.36 1.785 0.462 0.882 0.528 1.929 0.2 3.141v0c-0.173 0.639-0.407 1.269-0.702 1.89-0.302 0.619-0.638 1.193-1.007 1.722v0c-0.411 0.03-0.896 0.005-1.454-0.076-0.552-0.079-1.226-0.226-2.024-0.441v0c-0.606-0.164-1.212-0.384-1.816-0.662-0.606-0.27-1.174-0.59-1.703-0.959v0c-0.094 0.215-0.176 0.43-0.248 0.643-0.065 0.216-0.127 0.429-0.184 0.64v0c-0.405 1.496-0.471 2.772-0.198 3.83 0.273 1.057 0.841 1.702 1.704 1.936v0c0.758 0.205 1.612 0.054 2.562-0.453 0.949-0.5 1.689-1.209 2.22-2.125z" fill="#000000" data-fill-palette-color="primary"></path><path d="M182.202 28.047v0c-0.166-0.006-0.355-0.027-0.568-0.065-0.219-0.04-0.427-0.099-0.624-0.175v0c-0.154-0.037-0.288-0.089-0.401-0.155-0.107-0.063-0.211-0.136-0.311-0.219v0c0.443-2.493 1.075-5.041 1.897-7.644 0.826-2.594 1.8-5.156 2.923-7.686v0c0.147-0.002 0.318 0.02 0.512 0.066 0.191 0.037 0.471 0.127 0.84 0.269v0c0.185 0.071 0.357 0.156 0.517 0.254 0.162 0.092 0.326 0.199 0.49 0.322v0c-0.419 0.746-0.76 1.382-1.022 1.91-0.269 0.526-0.507 1.03-0.716 1.513v0c0.969-1.258 1.959-2.164 2.97-2.718 1.014-0.56 1.897-0.695 2.648-0.404v0c0.732 0.283 1.166 0.761 1.301 1.435 0.141 0.677-0.003 1.572-0.433 2.687v0c-0.084 0.217-0.184 0.449-0.302 0.696-0.117 0.247-0.242 0.514-0.374 0.799v0c-0.239-0.026-0.516-0.086-0.831-0.178-0.309-0.09-0.636-0.209-0.982-0.357v0c0.144-0.259 0.273-0.509 0.388-0.75 0.115-0.241 0.218-0.479 0.309-0.715v0c0.226-0.586 0.32-1.047 0.282-1.384-0.036-0.343-0.2-0.571-0.494-0.685v0c-0.618-0.238-1.491 0.175-2.619 1.24-1.122 1.067-2.269 2.571-3.442 4.511v0c-0.346 1.067-0.682 2.214-1.01 3.441-0.327 1.227-0.643 2.558-0.948 3.992z" fill="#000000" data-fill-palette-color="primary"></path><path d="M203.094 26.699v0c-0.582 1.152-1.513 2.601-2.793 4.348-1.28 1.747-2.539 3.307-3.775 4.679v0c-0.262-0.132-0.528-0.301-0.799-0.507-0.271-0.206-0.525-0.422-0.763-0.649v0c0.055-0.064 0.115-0.137 0.18-0.219 0.068-0.088 0.169-0.198 0.304-0.329v0c0.19-0.256 0.336-0.438 0.437-0.547 0.104-0.116 0.192-0.221 0.262-0.315v0c-0.504 0.074-1.023 0.064-1.557-0.03-0.534-0.094-1.063-0.273-1.587-0.537v0c-1.188-0.6-1.986-1.405-2.394-2.415-0.417-1.006-0.361-2.033 0.168-3.081v0c0.576-1.14 1.494-1.762 2.756-1.867 1.265-0.111 2.832 0.306 4.703 1.252v0c0.28 0.142 0.548 0.285 0.804 0.429 0.259 0.138 0.6 0.326 1.024 0.563v0c0.108-0.167 0.214-0.355 0.318-0.562 0.108-0.213 0.276-0.545 0.503-0.997v0c0.708-1.402 1.05-2.502 1.026-3.302-0.024-0.8-0.429-1.399-1.215-1.796v0c-0.804-0.406-1.656-0.393-2.556 0.04-0.893 0.436-1.632 1.187-2.217 2.253v0c-0.454-0.313-0.787-0.631-0.999-0.952-0.215-0.315-0.332-0.653-0.348-1.013v0c0.795-1.044 1.871-1.728 3.228-2.053 1.357-0.324 2.648-0.177 3.873 0.442v0c1.328 0.671 2.109 1.609 2.342 2.813 0.239 1.207-0.069 2.658-0.925 4.352zM192.829 28.191v0c-0.326 0.646-0.375 1.264-0.145 1.854 0.23 0.59 0.683 1.056 1.359 1.398v0c0.494 0.249 1.001 0.41 1.523 0.482 0.519 0.078 1.045 0.065 1.58-0.039v0c0.5-0.642 0.932-1.224 1.295-1.744 0.362-0.521 0.704-1.052 1.023-1.594v0c-1.751-1.015-3.181-1.553-4.289-1.616-1.105-0.069-1.887 0.351-2.346 1.259z" fill="#000000" data-fill-palette-color="primary"></path><path d="M210.198 35.844v0c0.242 0.205 0.465 0.426 0.669 0.663 0.21 0.241 0.367 0.477 0.471 0.706v0c-0.921 1.364-1.894 2.267-2.92 2.711-1.02 0.447-1.974 0.383-2.864-0.191v0c-1.038-0.67-1.439-1.762-1.201-3.274 0.231-1.517 1.089-3.425 2.574-5.725v0c0.489-0.757 1-1.499 1.535-2.227 0.54-0.724 1.115-1.45 1.724-2.179v0c-0.302-0.211-0.589-0.441-0.86-0.689-0.271-0.248-0.543-0.505-0.818-0.772v0c0.165-0.218 0.344-0.42 0.536-0.604 0.183-0.183 0.375-0.335 0.576-0.458v0c0.269 0.263 0.527 0.511 0.775 0.744 0.251 0.227 0.509 0.438 0.774 0.634v0c0.343-0.38 0.729-0.789 1.158-1.227 0.431-0.429 0.977-0.954 1.638-1.575v0c0.337 0.234 0.654 0.491 0.952 0.772 0.296 0.272 0.57 0.559 0.822 0.86v0c-0.514 0.432-1.002 0.86-1.464 1.286-0.461 0.425-0.886 0.85-1.274 1.274v0c0.649 0.443 1.293 0.855 1.933 1.236 0.64 0.381 1.272 0.736 1.897 1.066v0c-0.107 0.166-0.248 0.34-0.422 0.52-0.17 0.175-0.365 0.358-0.585 0.548v0c-0.649-0.329-1.296-0.686-1.942-1.07-0.655-0.382-1.29-0.784-1.904-1.205v0c-0.615 0.7-1.213 1.432-1.794 2.194-0.591 0.764-1.134 1.531-1.631 2.299v0c-1.126 1.744-1.854 3.155-2.184 4.234-0.34 1.081-0.272 1.775 0.204 2.082v0c0.447 0.289 0.963 0.22 1.548-0.208 0.59-0.423 1.283-1.232 2.077-2.425z" fill="#000000" data-fill-palette-color="primary"></path><path d="M213.872 46.579v0c-1.117-0.888-1.531-2.106-1.242-3.655 0.295-1.545 1.281-3.373 2.959-5.485v0c0.854-1.074 1.798-2.081 2.832-3.021 1.034-0.94 1.872-1.543 2.511-1.81v0c0.172 0.058 0.336 0.132 0.492 0.22 0.156 0.089 0.303 0.189 0.443 0.3v0c0.139 0.11 0.256 0.221 0.351 0.331 0.101 0.115 0.179 0.247 0.235 0.396v0c-0.812 0.55-1.657 1.251-2.537 2.105-0.879 0.854-1.756 1.831-2.631 2.932v0c-1.181 1.486-1.978 2.841-2.392 4.064-0.409 1.228-0.322 2.073 0.261 2.536v0c0.722 0.573 1.707 0.458 2.956-0.346 1.253-0.809 2.672-2.211 4.257-4.204v0c0.484-0.609 0.962-1.271 1.435-1.986 0.467-0.719 0.775-1.233 0.924-1.542v0c0.315 0.076 0.664 0.218 1.047 0.427 0.388 0.203 0.734 0.426 1.039 0.668v0c-0.2 0.416-0.477 0.885-0.831 1.407-0.353 0.521-0.732 1.036-1.135 1.544v0c-2.179 2.742-4.202 4.558-6.068 5.447-1.876 0.89-3.511 0.781-4.906-0.328z" fill="#000000" data-fill-palette-color="primary"></path><path d="M225.761 50.144v0c-0.649 0.655-1.37 1.411-2.163 2.269-0.788 0.853-1.35 1.488-1.686 1.904v0c-0.232-0.124-0.494-0.287-0.784-0.489-0.291-0.211-0.555-0.434-0.792-0.67v0c1.35-1.556 3.142-3.528 5.376-5.918 2.23-2.395 4.142-4.397 5.738-6.007v0c0.213 0.067 0.435 0.177 0.667 0.331 0.237 0.149 0.46 0.326 0.669 0.533v0c0.141 0.139 0.269 0.281 0.386 0.425 0.121 0.149 0.235 0.306 0.342 0.469v0c-0.274 0.218-0.702 0.587-1.284 1.107-0.577 0.514-0.955 0.847-1.133 0.997v0c1.22-0.309 2.272-0.396 3.156-0.26 0.884 0.136 1.612 0.488 2.185 1.055v0c0.858 0.851 1.174 1.788 0.946 2.812-0.232 1.029-1.016 2.218-2.352 3.566v0c-1.072 1.081-2.366 2.212-3.881 3.392-1.511 1.175-2.74 2.047-3.689 2.616v0c-0.213-0.231-0.432-0.505-0.655-0.823-0.223-0.318-0.411-0.623-0.562-0.917v0c1.603-1.113 2.984-2.142 4.143-3.089 1.159-0.946 2.2-1.885 3.123-2.816v0c0.87-0.878 1.391-1.616 1.562-2.215 0.166-0.604 0.007-1.147-0.478-1.628v0c-0.49-0.485-1.215-0.724-2.175-0.714-0.965 0.014-2.041 0.274-3.227 0.782v0c-1.019 0.97-1.764 1.678-2.235 2.124-0.466 0.441-0.865 0.829-1.197 1.164z" fill="#000000" data-fill-palette-color="primary"></path><path d="M237.772 59.341v0c-1.397 1.107-2.337 2.174-2.82 3.201-0.479 1.033-0.458 1.879 0.063 2.537v0c0.403 0.508 1.003 0.738 1.801 0.69 0.802-0.043 1.851-0.369 3.146-0.977v0c1.129-0.938 2.12-1.854 2.972-2.747 0.856-0.887 1.601-1.783 2.235-2.686v0c-0.062-0.177-0.146-0.355-0.251-0.532-0.106-0.177-0.227-0.352-0.363-0.523v0c-0.704-0.888-1.62-1.247-2.747-1.076-1.128 0.171-2.473 0.875-4.036 2.113zM240.672 67.156v0c-3.104 2.459-5.796 3.931-8.078 4.415-2.287 0.488-3.997 0.018-5.129-1.411v0c-0.776-0.979-1.091-2.053-0.946-3.222 0.149-1.164 0.726-2.283 1.73-3.357v0c0.348 0.099 0.696 0.241 1.044 0.427 0.348 0.186 0.668 0.403 0.96 0.651v0c-0.963 1.016-1.558 1.887-1.783 2.614-0.225 0.727-0.1 1.39 0.375 1.99v0c0.606 0.765 1.632 0.95 3.077 0.554 1.451-0.401 3.248-1.376 5.391-2.926v0c-0.873 0.195-1.623 0.21-2.25 0.045-0.633-0.161-1.161-0.509-1.585-1.043v0c-0.924-1.167-1.139-2.504-0.644-4.012 0.495-1.508 1.623-2.959 3.384-4.353v0c1.873-1.484 3.683-2.234 5.429-2.251 1.748-0.026 3.181 0.667 4.301 2.08v0c0.352 0.444 0.659 0.941 0.921 1.492 0.261 0.56 0.449 1.116 0.565 1.669v0c-0.809 1.024-1.843 2.153-3.105 3.388-1.261 1.234-2.48 2.318-3.657 3.25z" fill="#000000" data-fill-palette-color="primary"></path><path d="M266.119 79.586v0c-1.461 1.31-2.842 2.435-4.144 3.375-1.311 0.937-2.624 1.755-3.938 2.454v0c-3.924 2.087-7.136 3.107-9.635 3.06-2.49-0.044-4.311-1.148-5.462-3.312v0c-0.862-1.621-0.755-3.229 0.323-4.823 1.084-1.597 3.163-3.213 6.237-4.849v0c1.591-0.846 3.327-1.603 5.207-2.27 1.886-0.67 3.462-1.11 4.727-1.319v0c0.122 0.113 0.257 0.273 0.406 0.48 0.146 0.216 0.269 0.418 0.368 0.604v0c0.083 0.157 0.153 0.309 0.208 0.458 0.056 0.148 0.1 0.291 0.135 0.427v0c-1.793 0.467-3.477 0.995-5.05 1.584-1.57 0.595-2.994 1.233-4.273 1.913v0c-2.851 1.516-4.789 2.845-5.814 3.985-1.022 1.147-1.249 2.253-0.681 3.32v0c0.673 1.266 1.963 1.829 3.868 1.69 1.899-0.136 4.241-0.945 7.026-2.427v0c1.676-0.891 3.211-1.828 4.607-2.809 1.392-0.988 2.835-2.165 4.327-3.531v0c0.266 0.253 0.528 0.55 0.788 0.892 0.259 0.342 0.516 0.708 0.77 1.098z" fill="#000000" data-fill-palette-color="secondary"></path><path d="M263.666 102.54v0c-1.801 0.601-3.484 1.316-5.051 2.146-1.564 0.836-3.11 1.817-4.635 2.943v0c-0.138-0.204-0.279-0.444-0.421-0.719-0.138-0.284-0.273-0.58-0.405-0.889v0c0.551-0.487 1.107-0.948 1.67-1.381 0.565-0.427 1.149-0.843 1.751-1.247v0c-1.486-0.2-2.674-0.623-3.565-1.269-0.897-0.643-1.551-1.537-1.961-2.681v0c-0.594-1.658-0.275-3.259 0.957-4.802 1.238-1.545 3.22-2.806 5.945-3.782v0c3.484-1.247 6.552-1.599 9.205-1.054 2.649 0.553 4.362 1.915 5.14 4.088v0c0.536 1.498 0.377 2.875-0.479 4.13-0.86 1.265-2.286 2.254-4.278 2.968v0c-0.214-0.315-0.415-0.642-0.602-0.981-0.18-0.342-0.353-0.711-0.516-1.11v0c1.696-0.651 2.89-1.397 3.581-2.239 0.688-0.834 0.857-1.739 0.507-2.716v0c-0.463-1.292-1.737-2.036-3.823-2.232-2.088-0.202-4.508 0.189-7.259 1.174v0c-2.449 0.877-4.238 1.876-5.366 2.998-1.128 1.122-1.488 2.255-1.078 3.399v0c0.35 0.977 1.044 1.689 2.081 2.137 1.031 0.45 2.359 0.613 3.982 0.489v0c0.508-0.262 1.05-0.532 1.625-0.81 0.575-0.278 1.206-0.562 1.892-0.851v0c0.197 0.307 0.391 0.658 0.584 1.053 0.195 0.402 0.368 0.815 0.519 1.238z" fill="#000000" data-fill-palette-color="secondary"></path><path d="M29.562 181.919v0c-1.557 0.945-3.016 1.734-4.378 2.368-1.353 0.638-2.691 1.164-4.014 1.577v0c-3.949 1.235-7.063 1.616-9.343 1.141-2.278-0.468-3.757-1.79-4.438-3.966v0c-0.512-1.636-0.134-3.091 1.134-4.368 1.261-1.274 3.439-2.396 6.534-3.363v0c1.603-0.501 3.325-0.897 5.166-1.187 1.834-0.288 3.349-0.418 4.545-0.392v0c0.097 0.127 0.193 0.297 0.288 0.511 0.097 0.22 0.177 0.428 0.238 0.623v0c0.049 0.156 0.085 0.306 0.109 0.449 0.03 0.141 0.044 0.279 0.044 0.415v0c-1.717 0.115-3.344 0.309-4.883 0.583-1.54 0.267-2.955 0.603-4.245 1.006v0c-2.874 0.899-4.874 1.786-6.003 2.661-1.13 0.869-1.527 1.841-1.191 2.916v0c0.397 1.271 1.48 2.009 3.246 2.214 1.758 0.201 4.038-0.137 6.84-1.013v0c1.688-0.528 3.254-1.122 4.701-1.781 1.444-0.666 2.966-1.496 4.565-2.49v0c0.202 0.28 0.391 0.597 0.565 0.95 0.183 0.358 0.357 0.74 0.52 1.146z" fill="#000000" data-fill-palette-color="primary"></path><path d="M19.129 195.022v0c-0.781 0.36-1.653 0.785-2.615 1.274-0.972 0.486-1.669 0.856-2.093 1.111v0c-0.168-0.186-0.346-0.416-0.533-0.69-0.187-0.275-0.345-0.552-0.473-0.831v0c1.682-0.918 3.887-2.055 6.615-3.411 2.728-1.356 5.053-2.476 6.975-3.362v0c0.155 0.124 0.311 0.292 0.47 0.505 0.155 0.207 0.29 0.434 0.404 0.682v0c0.077 0.167 0.142 0.333 0.195 0.496 0.059 0.161 0.109 0.333 0.149 0.518v0c-0.312 0.106-0.803 0.288-1.475 0.545-0.677 0.26-1.118 0.429-1.321 0.508v0c1.163 0.125 2.109 0.392 2.838 0.8 0.727 0.402 1.247 0.944 1.562 1.625v0c0.475 1.029 0.445 1.952-0.088 2.77-0.539 0.82-1.612 1.6-3.217 2.34v0c-1.29 0.595-2.786 1.157-4.489 1.687-1.7 0.536-3.059 0.899-4.076 1.089v0c-0.104-0.275-0.203-0.587-0.296-0.934-0.087-0.351-0.151-0.678-0.194-0.983v0c1.762-0.451 3.302-0.902 4.621-1.352 1.321-0.444 2.537-0.922 3.647-1.433v0c1.042-0.48 1.732-0.956 2.07-1.429 0.348-0.469 0.389-0.991 0.123-1.567v0c-0.269-0.583-0.823-1.026-1.662-1.331-0.846-0.302-1.87-0.427-3.072-0.377v0c-1.205 0.518-2.084 0.893-2.638 1.126-0.554 0.233-1.03 0.441-1.427 0.624z" fill="#000000" data-fill-palette-color="primary"></path><path d="M29.053 211.244v0c0.116 0.273 0.212 0.55 0.287 0.832 0.078 0.288 0.115 0.548 0.112 0.781v0c-1.333 0.764-2.516 1.122-3.549 1.075-1.039-0.044-1.813-0.489-2.325-1.337v0c-0.592-0.982-0.479-2.059 0.338-3.229 0.814-1.176 2.311-2.421 4.492-3.736v0c0.719-0.433 1.453-0.844 2.2-1.23 0.747-0.387 1.524-0.759 2.329-1.116v0c-0.159-0.303-0.303-0.615-0.432-0.936-0.126-0.315-0.249-0.639-0.371-0.972v0c0.233-0.116 0.463-0.211 0.69-0.284 0.233-0.077 0.46-0.13 0.681-0.159v0c0.115 0.337 0.229 0.651 0.341 0.942 0.115 0.297 0.244 0.583 0.384 0.856v0c0.448-0.182 0.939-0.367 1.473-0.552 0.534-0.186 1.207-0.405 2.02-0.656v0c0.18 0.338 0.34 0.684 0.481 1.037 0.132 0.351 0.241 0.704 0.327 1.059v0c-0.61 0.152-1.194 0.313-1.753 0.483-0.553 0.166-1.083 0.346-1.589 0.538v0c0.36 0.636 0.731 1.246 1.114 1.828 0.379 0.577 0.762 1.131 1.147 1.665v0c-0.152 0.092-0.34 0.177-0.564 0.256-0.214 0.081-0.449 0.155-0.704 0.221v0c-0.413-0.54-0.811-1.101-1.194-1.684-0.386-0.588-0.751-1.186-1.092-1.793v0c-0.8 0.339-1.603 0.707-2.408 1.104-0.805 0.397-1.573 0.816-2.303 1.257v0c-1.655 0.997-2.841 1.88-3.559 2.647-0.721 0.761-0.946 1.367-0.674 1.817v0c0.257 0.427 0.718 0.583 1.383 0.47 0.665-0.114 1.571-0.508 2.718-1.184z" fill="#000000" data-fill-palette-color="primary"></path><path d="M36.404 216.755v0c0.171 0.53 0.401 1.071 0.691 1.623 0.291 0.542 0.64 1.082 1.048 1.621v0c0.111 0.147 0.247 0.314 0.406 0.502 0.165 0.184 0.294 0.308 0.387 0.375v0c0.511-0.207 0.962-0.421 1.353-0.64 0.4-0.218 0.745-0.436 1.033-0.654v0c0.642-0.487 1.019-0.939 1.13-1.358 0.117-0.423 0-0.865-0.351-1.327v0c-0.462-0.609-1.213-0.922-2.253-0.939-1.036-0.011-2.184 0.255-3.444 0.797zM36.967 223.974v0c0.134 0.267 0.226 0.57 0.277 0.908 0.051 0.338 0.055 0.661 0.013 0.967v0c-1.037 0.349-2.21 0.351-3.517 0.005-1.302-0.35-2.299-0.982-2.992-1.896v0c-0.895-1.181-1.141-2.455-0.738-3.822 0.403-1.367 1.374-2.635 2.914-3.802v0c1.73-1.311 3.651-2.004 5.762-2.079 2.112-0.084 3.675 0.543 4.69 1.882v0c0.647 0.854 0.891 1.741 0.73 2.659-0.165 0.913-0.712 1.722-1.643 2.427v0c-0.495 0.375-1.03 0.704-1.605 0.985-0.571 0.287-1.142 0.523-1.713 0.707v0c-0.321-0.22-0.665-0.516-1.033-0.888-0.362-0.376-0.774-0.869-1.236-1.479v0c-0.355-0.468-0.675-0.975-0.96-1.521-0.295-0.547-0.53-1.106-0.705-1.676v0c-0.199 0.099-0.385 0.21-0.557 0.332-0.173 0.122-0.338 0.243-0.496 0.363v0c-1.148 0.87-1.925 1.772-2.332 2.705-0.397 0.935-0.344 1.734 0.16 2.398v0c0.441 0.582 1.155 0.958 2.139 1.128 0.985 0.17 1.932 0.069 2.842-0.303z" fill="#000000" data-fill-palette-color="primary"></path><path d="M39.85 234.38v0c-0.138-0.067-0.292-0.161-0.462-0.283-0.16-0.121-0.308-0.254-0.444-0.398v0c-0.118-0.096-0.209-0.193-0.273-0.291-0.064-0.099-0.122-0.2-0.172-0.303v0c1.375-1.917 2.933-3.799 4.673-5.647 1.74-1.847 3.593-3.604 5.559-5.27v0c0.129 0.057 0.266 0.144 0.411 0.259 0.141 0.111 0.338 0.301 0.591 0.57v0c0.121 0.129 0.233 0.268 0.334 0.416 0.097 0.143 0.188 0.301 0.275 0.473v0c-0.647 0.457-1.189 0.853-1.625 1.187-0.436 0.334-0.84 0.661-1.212 0.982v0c1.321-0.668 2.518-1.028 3.592-1.08 1.069-0.058 1.861 0.187 2.375 0.735v0c0.5 0.533 0.672 1.106 0.517 1.719-0.155 0.623-0.639 1.315-1.45 2.077v0c-0.159 0.149-0.341 0.305-0.544 0.468-0.194 0.163-0.404 0.337-0.633 0.523v0c-0.189-0.122-0.397-0.283-0.622-0.484-0.225-0.2-0.45-0.435-0.673-0.702v0c0.227-0.157 0.435-0.315 0.624-0.473 0.193-0.153 0.377-0.312 0.551-0.475v0c0.423-0.397 0.69-0.746 0.802-1.047 0.101-0.301 0.052-0.559-0.15-0.773v0c-0.42-0.448-1.319-0.453-2.694-0.013-1.376 0.439-2.945 1.237-4.706 2.392v0c-0.719 0.75-1.468 1.574-2.246 2.472-0.768 0.898-1.567 1.887-2.398 2.966z" fill="#000000" data-fill-palette-color="primary"></path><path d="M51.976 239.698v0c-0.563 0.65-1.183 1.396-1.858 2.238-0.685 0.843-1.168 1.468-1.449 1.875v0c-0.23-0.1-0.486-0.236-0.77-0.41-0.283-0.173-0.541-0.361-0.773-0.562v0c1.154-1.53 2.694-3.474 4.621-5.833 1.927-2.359 3.583-4.339 4.97-5.938v0c0.192 0.049 0.404 0.138 0.636 0.266 0.227 0.124 0.443 0.276 0.649 0.455v0c0.139 0.121 0.267 0.245 0.383 0.372 0.12 0.122 0.236 0.259 0.349 0.41v0c-0.24 0.225-0.613 0.593-1.119 1.104-0.51 0.516-0.842 0.852-0.996 1.008v0c1.111-0.365 2.083-0.512 2.916-0.441 0.828 0.067 1.525 0.346 2.093 0.838v0c0.857 0.742 1.21 1.595 1.062 2.559-0.153 0.969-0.809 2.122-1.967 3.459v0c-0.93 1.073-2.062 2.202-3.395 3.386-1.328 1.189-2.416 2.08-3.265 2.673v0c-0.208-0.208-0.427-0.451-0.655-0.73-0.224-0.284-0.417-0.556-0.581-0.815v0c1.419-1.137 2.637-2.183 3.653-3.137 1.021-0.949 1.932-1.885 2.732-2.808v0c0.751-0.867 1.184-1.585 1.298-2.155 0.124-0.57-0.054-1.063-0.534-1.479v0c-0.485-0.42-1.173-0.596-2.064-0.528-0.895 0.074-1.88 0.381-2.954 0.923v0c-0.884 0.968-1.531 1.673-1.939 2.113-0.409 0.441-0.756 0.826-1.043 1.157z" fill="#000000" data-fill-palette-color="primary"></path><path d="M66.364 245.92v0c0.333 0.447 0.726 0.884 1.178 1.312 0.451 0.419 0.956 0.817 1.517 1.195v0c0.153 0.103 0.335 0.217 0.547 0.343 0.215 0.12 0.378 0.197 0.487 0.23v0c0.416-0.362 0.774-0.709 1.073-1.044 0.308-0.336 0.564-0.653 0.766-0.953v0c0.45-0.668 0.66-1.218 0.63-1.65-0.026-0.438-0.28-0.818-0.762-1.143v0c-0.634-0.427-1.446-0.48-2.436-0.159-0.984 0.325-1.984 0.948-3 1.869zM69.233 252.569v0c0.213 0.209 0.398 0.466 0.556 0.769 0.158 0.304 0.266 0.607 0.325 0.911v0c-0.868 0.666-1.977 1.047-3.325 1.143-1.345 0.09-2.493-0.185-3.445-0.826v0c-1.229-0.828-1.874-1.953-1.935-3.377-0.062-1.424 0.447-2.938 1.526-4.541v0c1.213-1.801 2.805-3.078 4.779-3.832 1.971-0.763 3.653-0.676 5.046 0.262v0c0.889 0.599 1.406 1.359 1.551 2.28 0.14 0.917-0.117 1.86-0.769 2.828v0c-0.347 0.515-0.747 0.999-1.199 1.452-0.447 0.456-0.911 0.864-1.392 1.223v0c-0.374-0.104-0.796-0.273-1.264-0.506-0.465-0.239-1.014-0.572-1.649-0.999v0c-0.487-0.328-0.954-0.704-1.401-1.128-0.456-0.422-0.859-0.875-1.209-1.358v0c-0.156 0.158-0.296 0.323-0.42 0.495-0.124 0.172-0.241 0.34-0.352 0.504v0c-0.805 1.195-1.248 2.3-1.33 3.314-0.073 1.013 0.236 1.752 0.927 2.217v0c0.606 0.408 1.403 0.533 2.39 0.375 0.987-0.158 1.851-0.56 2.59-1.206z" fill="#000000" data-fill-palette-color="primary"></path><path d="M86.035 256.931v0c-0.682 1.307-1.681 2.734-2.997 4.281-1.306 1.544-2.421 2.691-3.344 3.442v0c-0.263-0.176-0.507-0.372-0.732-0.59-0.222-0.224-0.421-0.462-0.596-0.716v0c1.167-1.055 2.259-2.233 3.277-3.534 1.018-1.302 1.856-2.582 2.512-3.841v0c0.657-1.259 0.994-2.207 1.012-2.845 0.011-0.641-0.298-1.126-0.928-1.455v0c-0.66-0.344-1.505-0.319-2.534 0.075-1.033 0.4-2.052 1.128-3.057 2.183v0l-0.038 0.072c-0.474 0.908-1.017 2.053-1.63 3.435-0.623 1.385-1.056 2.406-1.3 3.065v0c-0.201-0.043-0.471-0.13-0.81-0.262-0.349-0.128-0.669-0.268-0.96-0.42v0c0.757-1.761 1.493-3.406 2.207-4.936 0.72-1.527 1.41-2.922 2.07-4.187v0c0.682-1.307 1.52-2.795 2.514-4.464 0.997-1.674 1.779-2.899 2.345-3.674v0c0.269 0.002 0.531 0.031 0.787 0.087 0.252 0.062 0.494 0.154 0.723 0.274v0c0.157 0.082 0.328 0.206 0.511 0.371 0.18 0.171 0.301 0.28 0.361 0.327v0c-0.902 1.093-1.817 2.309-2.748 3.648-0.921 1.337-1.786 2.699-2.594 4.087v0c0.992-0.676 1.943-1.096 2.852-1.261 0.907-0.158 1.708-0.056 2.404 0.308v0c1.132 0.591 1.753 1.4 1.864 2.428 0.107 1.034-0.283 2.401-1.171 4.102z" fill="#000000" data-fill-palette-color="primary"></path><path d="M91.443 263.67v0c-0.348 0.999-0.66 1.957-0.936 2.874-0.282 0.914-0.467 1.58-0.555 1.997v0c-0.248-0.014-0.536-0.049-0.863-0.106-0.327-0.056-0.636-0.135-0.926-0.236v0c0.585-2.074 1.315-4.531 2.188-7.371 0.874-2.84 1.632-5.183 2.275-7.026v0c0.203-0.023 0.433-0.019 0.689 0.012 0.263 0.034 0.523 0.096 0.782 0.186v0c0.258 0.09 0.454 0.169 0.589 0.238 0.144 0.065 0.277 0.14 0.399 0.225v0c-0.071 0.163-0.218 0.491-0.441 0.985-0.223 0.494-0.507 1.154-0.853 1.981v0c0.825-0.645 1.625-1.064 2.401-1.257 0.769-0.195 1.515-0.166 2.237 0.085v0c0.619 0.216 1.08 0.542 1.382 0.981 0.305 0.432 0.466 0.987 0.483 1.665v0c0.97-0.855 1.89-1.431 2.76-1.728 0.863-0.299 1.692-0.311 2.485-0.035v0c1.012 0.353 1.615 1 1.807 1.942 0.201 0.938 0.011 2.241-0.571 3.911v0c-0.528 1.515-1.269 3.176-2.225 4.984-0.949 1.81-1.891 3.394-2.826 4.752v0c-0.303-0.127-0.618-0.28-0.946-0.46-0.332-0.188-0.606-0.367-0.822-0.536v0c1.118-1.693 2.079-3.321 2.883-4.884 0.805-1.563 1.471-3.102 2-4.617v0c0.38-1.09 0.526-1.913 0.438-2.472-0.087-0.558-0.415-0.936-0.982-1.134v0c-0.567-0.198-1.224-0.108-1.97 0.269-0.752 0.374-1.511 0.995-2.276 1.863v0c-0.084 0.303-0.156 0.553-0.217 0.749-0.063 0.202-0.125 0.39-0.186 0.564v0c-0.425 1.219-1.011 2.569-1.759 4.051-0.745 1.475-1.425 2.678-2.037 3.606v0c-0.251-0.109-0.534-0.251-0.849-0.426-0.313-0.181-0.593-0.362-0.841-0.542v0c0.935-1.626 1.674-3.01 2.216-4.152 0.542-1.141 0.991-2.221 1.346-3.24v0c0.384-1.102 0.532-1.933 0.445-2.491-0.079-0.562-0.402-0.943-0.97-1.14v0c-0.606-0.211-1.289-0.149-2.049 0.186-0.767 0.333-1.502 0.897-2.206 1.693v0c-0.253 0.685-0.514 1.382-0.783 2.092-0.269 0.709-0.507 1.363-0.716 1.962z" fill="#000000" data-fill-palette-color="primary"></path><path d="M113.494 266.118v0c0.482 0.279 1.015 0.527 1.6 0.742 0.579 0.207 1.201 0.374 1.864 0.5v0c0.181 0.034 0.394 0.068 0.638 0.1 0.245 0.026 0.425 0.032 0.538 0.019v0c0.24-0.496 0.432-0.957 0.576-1.381 0.151-0.43 0.261-0.823 0.328-1.178v0c0.15-0.791 0.127-1.38-0.071-1.765-0.197-0.392-0.58-0.642-1.15-0.75v0c-0.751-0.143-1.519 0.128-2.302 0.813-0.777 0.686-1.45 1.653-2.021 2.9zM118.749 271.099v0c0.278 0.108 0.55 0.271 0.815 0.488 0.265 0.217 0.484 0.453 0.657 0.709v0c-0.536 0.954-1.405 1.741-2.607 2.361-1.201 0.613-2.364 0.812-3.491 0.597v0c-1.455-0.277-2.492-1.057-3.109-2.342-0.617-1.285-0.746-2.876-0.385-4.775v0c0.405-2.133 1.366-3.934 2.883-5.404 1.511-1.478 3.092-2.06 4.741-1.746v0c1.053 0.2 1.828 0.695 2.324 1.484 0.49 0.788 0.625 1.756 0.408 2.902v0c-0.116 0.61-0.293 1.213-0.532 1.807-0.231 0.595-0.497 1.153-0.797 1.673v0c-0.385 0.052-0.839 0.063-1.362 0.033-0.521-0.037-1.157-0.126-1.908-0.269v0c-0.577-0.11-1.154-0.272-1.732-0.486-0.586-0.209-1.135-0.466-1.646-0.772v0c-0.081 0.207-0.145 0.414-0.191 0.621-0.046 0.207-0.088 0.407-0.125 0.602v0c-0.269 1.415-0.242 2.605 0.082 3.57 0.332 0.96 0.907 1.517 1.725 1.673v0c0.718 0.136 1.499-0.063 2.345-0.597 0.845-0.534 1.48-1.244 1.905-2.129z" fill="#000000" data-fill-palette-color="primary"></path><path d="M127.665 272.218v0c-0.066 0.858-0.12 1.826-0.162 2.905-0.049 1.085-0.066 1.875-0.05 2.369v0c-0.244 0.057-0.531 0.099-0.862 0.128-0.331 0.029-0.65 0.032-0.956 0.009v0c0.018-1.916 0.099-4.395 0.245-7.438 0.145-3.043 0.3-5.619 0.462-7.73v0c0.184-0.075 0.407-0.13 0.67-0.164 0.256-0.035 0.52-0.042 0.792-0.021v0c0.184 0.014 0.36 0.038 0.529 0.072 0.169 0.027 0.344 0.068 0.525 0.122v0c-0.059 0.324-0.14 0.842-0.243 1.553-0.103 0.718-0.17 1.185-0.201 1.402v0c0.676-0.954 1.37-1.651 2.082-2.089 0.705-0.439 1.432-0.629 2.18-0.571v0c1.13 0.087 1.922 0.562 2.376 1.425 0.453 0.87 0.612 2.187 0.476 3.95v0c-0.109 1.416-0.347 2.996-0.714 4.742-0.36 1.746-0.705 3.109-1.034 4.091v0c-0.291-0.043-0.611-0.109-0.961-0.198-0.349-0.095-0.666-0.199-0.952-0.309v0c0.464-1.758 0.821-3.323 1.07-4.694 0.256-1.37 0.431-2.665 0.526-3.883v0c0.088-1.144 0.009-1.978-0.239-2.504-0.24-0.532-0.676-0.822-1.309-0.871v0c-0.64-0.049-1.297 0.218-1.972 0.803-0.676 0.592-1.284 1.425-1.826 2.499v0c-0.135 1.304-0.235 2.255-0.302 2.853-0.067 0.597-0.117 1.114-0.15 1.549z" fill="#000000" data-fill-palette-color="primary"></path><path d="M145.777 269.261v0c1.346 0.898 2.236 1.671 2.671 2.316 0.435 0.653 0.667 1.379 0.698 2.177v0c0.048 1.255-0.312 2.311-1.078 3.167-0.774 0.849-1.778 1.298-3.013 1.345v0c-1.296 0.049-2.368-0.374-3.215-1.271-0.848-0.904-1.3-2.12-1.359-3.648v0c0.27-0.099 0.557-0.178 0.862-0.238 0.298-0.059 0.591-0.084 0.878-0.075v0c0.012 1.222 0.264 2.169 0.754 2.841 0.49 0.678 1.172 1.001 2.046 0.967v0c0.655-0.025 1.172-0.267 1.551-0.725 0.372-0.465 0.543-1.08 0.513-1.844v0c-0.024-0.621-0.216-1.194-0.578-1.72-0.368-0.519-1.141-1.176-2.319-1.971v0c-1.388-0.931-2.304-1.74-2.747-2.427-0.45-0.687-0.691-1.456-0.724-2.309v0c-0.044-1.153 0.269-2.084 0.939-2.792 0.663-0.709 1.588-1.085 2.775-1.131v0c1.126-0.043 2.025 0.251 2.699 0.881 0.673 0.63 1.163 1.66 1.47 3.09v0c-0.268 0.14-0.541 0.246-0.818 0.318-0.284 0.079-0.579 0.142-0.884 0.188v0c-0.184-1.072-0.474-1.847-0.868-2.324-0.394-0.477-0.918-0.703-1.573-0.678v0c-0.546 0.021-0.972 0.222-1.279 0.602-0.307 0.374-0.448 0.871-0.424 1.492v0c0.024 0.634 0.231 1.218 0.62 1.749 0.383 0.539 1.184 1.212 2.403 2.02z" fill="#000000" data-fill-palette-color="primary"></path><path d="M163.523 266.889v0c0.393 2.744 0.145 5.017-0.741 6.82-0.894 1.804-2.263 2.838-4.108 3.102v0c-0.629 0.09-1.221 0.071-1.778-0.056-0.548-0.122-1.085-0.355-1.61-0.701v0c-0.196-0.986-0.413-2.162-0.65-3.528-0.23-1.367-0.476-2.963-0.736-4.788v0c-0.283-1.98-0.523-3.967-0.718-5.959-0.188-1.987-0.295-3.579-0.321-4.775v0c0.186-0.096 0.398-0.181 0.635-0.257 0.238-0.069 0.513-0.125 0.824-0.169v0c0.142-0.02 0.279-0.029 0.41-0.028 0.13-0.005 0.324 0.002 0.583 0.02v0c-0.02 1.017-0.01 2.171 0.029 3.461 0.034 1.299 0.105 2.713 0.214 4.242v0c0.354-0.754 0.805-1.339 1.352-1.755 0.547-0.416 1.2-0.679 1.957-0.787v0c1.244-0.178 2.266 0.172 3.067 1.051 0.795 0.879 1.325 2.248 1.591 4.107zM156.912 274.911v0c0.244 0.165 0.508 0.272 0.791 0.321 0.284 0.056 0.581 0.062 0.892 0.017v0c1.223-0.175 2.074-0.979 2.551-2.413 0.478-1.434 0.545-3.35 0.202-5.75v0c-0.193-1.352-0.538-2.337-1.033-2.955-0.495-0.619-1.139-0.872-1.929-0.759v0c-0.581 0.083-1.103 0.458-1.567 1.124-0.464 0.66-0.796 1.521-0.996 2.584v0c0.062 0.577 0.123 1.148 0.183 1.712 0.067 0.563 0.137 1.105 0.211 1.625v0c0.207 1.446 0.354 2.449 0.441 3.009 0.086 0.553 0.171 1.048 0.254 1.485z" fill="#000000" data-fill-palette-color="primary"></path><path d="M170.456 264.815v0c0.556 0.042 1.143 0.032 1.763-0.028 0.612-0.065 1.244-0.186 1.897-0.362v0c0.178-0.048 0.384-0.11 0.618-0.187 0.232-0.084 0.396-0.156 0.493-0.217v0c0-0.551-0.028-1.049-0.084-1.494-0.051-0.453-0.123-0.854-0.217-1.204v0c-0.209-0.778-0.487-1.297-0.832-1.558-0.348-0.267-0.801-0.325-1.362-0.174v0c-0.738 0.198-1.311 0.777-1.719 1.734-0.401 0.956-0.586 2.119-0.557 3.49zM177.356 267.011v0c0.298-0.023 0.613 0.005 0.946 0.086 0.333 0.08 0.633 0.198 0.9 0.352v0c-0.067 1.093-0.507 2.179-1.319 3.26-0.814 1.074-1.775 1.76-2.883 2.058v0c-1.431 0.385-2.704 0.133-3.819-0.756-1.115-0.888-1.924-2.265-2.425-4.13v0c-0.564-2.097-0.483-4.137 0.243-6.121 0.717-1.988 1.886-3.2 3.508-3.636v0c1.035-0.278 1.948-0.17 2.738 0.324 0.784 0.496 1.327 1.308 1.631 2.436v0c0.161 0.6 0.264 1.219 0.308 1.858 0.051 0.637 0.054 1.254 0.01 1.853v0c-0.324 0.214-0.728 0.422-1.211 0.622-0.485 0.194-1.097 0.39-1.835 0.589v0c-0.567 0.152-1.157 0.258-1.771 0.317-0.618 0.067-1.224 0.075-1.818 0.022v0c0.017 0.222 0.05 0.436 0.098 0.641 0.048 0.206 0.098 0.405 0.15 0.596v0c0.374 1.391 0.917 2.451 1.628 3.179 0.717 0.719 1.477 0.971 2.281 0.755v0c0.705-0.19 1.322-0.709 1.851-1.558 0.528-0.849 0.791-1.764 0.789-2.747z" fill="#000000" data-fill-palette-color="primary"></path><path d="M188.082 268.256v0c-0.114 0.102-0.259 0.21-0.436 0.322-0.172 0.103-0.351 0.19-0.535 0.261v0c-0.133 0.073-0.257 0.121-0.373 0.144-0.116 0.023-0.231 0.038-0.345 0.045v0c-1.259-1.995-2.417-4.147-3.474-6.454-1.057-2.307-1.987-4.685-2.791-7.134v0c0.101-0.098 0.233-0.192 0.395-0.284 0.156-0.089 0.406-0.2 0.75-0.332v0c0.166-0.064 0.336-0.115 0.512-0.154 0.169-0.036 0.349-0.061 0.541-0.076v0c0.18 0.772 0.343 1.423 0.488 1.952 0.145 0.529 0.297 1.027 0.455 1.493v0c-0.122-1.475-0.005-2.72 0.35-3.735 0.349-1.012 0.874-1.654 1.575-1.923v0c0.682-0.263 1.278-0.207 1.787 0.167 0.519 0.378 0.978 1.086 1.378 2.125v0c0.079 0.204 0.155 0.431 0.229 0.68 0.078 0.241 0.16 0.502 0.247 0.783v0c-0.184 0.13-0.412 0.261-0.682 0.394-0.271 0.133-0.572 0.253-0.904 0.36v0c-0.06-0.27-0.128-0.521-0.204-0.756-0.069-0.237-0.147-0.467-0.232-0.69v0c-0.209-0.542-0.431-0.92-0.668-1.136-0.241-0.207-0.498-0.258-0.772-0.153v0c-0.573 0.221-0.916 1.051-1.027 2.492-0.111 1.44 0.038 3.194 0.446 5.261v0c0.424 0.949 0.906 1.952 1.445 3.01 0.543 1.049 1.158 2.162 1.845 3.338z" fill="#000000" data-fill-palette-color="primary"></path><path d="M201.491 251.689v0c0.546 1.078 1.121 2.578 1.726 4.498 0.605 1.921 1.077 3.724 1.418 5.412v0c-0.244 0.123-0.518 0.232-0.823 0.324-0.299 0.09-0.601 0.159-0.906 0.206v0c-0.013-0.07-0.033-0.156-0.06-0.256-0.034-0.098-0.064-0.232-0.089-0.403v0c-0.081-0.281-0.134-0.491-0.159-0.631-0.031-0.137-0.062-0.259-0.093-0.366v0c-0.218 0.416-0.511 0.798-0.879 1.145-0.368 0.347-0.795 0.643-1.282 0.89v0c-1.109 0.561-2.154 0.719-3.135 0.473-0.984-0.252-1.723-0.865-2.217-1.84v0c-0.533-1.054-0.492-2.085 0.123-3.092 0.615-1.007 1.794-1.952 3.535-2.833v0c0.256-0.129 0.507-0.253 0.754-0.37 0.25-0.111 0.582-0.264 0.997-0.459v0c-0.062-0.168-0.142-0.349-0.241-0.544-0.099-0.195-0.256-0.506-0.472-0.932v0c-0.657-1.298-1.293-2.162-1.908-2.592-0.613-0.425-1.288-0.45-2.025-0.077v0c-0.743 0.376-1.201 1.021-1.374 1.935-0.17 0.92-0.015 1.89 0.463 2.91v0c-0.491 0.164-0.912 0.239-1.263 0.226-0.357-0.011-0.675-0.11-0.954-0.297v0c-0.348-1.171-0.266-2.356 0.244-3.556 0.504-1.196 1.326-2.083 2.465-2.659v0c1.237-0.626 2.372-0.695 3.406-0.208 1.034 0.487 1.951 1.519 2.749 3.096zM196.948 260.22v0c0.302 0.597 0.737 0.974 1.306 1.13 0.566 0.15 1.165 0.065 1.799-0.256v0c0.457-0.231 0.857-0.522 1.2-0.871 0.346-0.344 0.628-0.747 0.846-1.209v0c-0.208-0.729-0.408-1.374-0.6-1.934-0.189-0.555-0.396-1.1-0.622-1.637v0c-1.725 0.75-2.918 1.522-3.579 2.316-0.662 0.794-0.778 1.614-0.35 2.461z" fill="#000000" data-fill-palette-color="primary"></path><path d="M212.732 248.935v0c0.269-0.125 0.543-0.23 0.822-0.313 0.285-0.087 0.544-0.133 0.777-0.138v0c0.807 1.308 1.203 2.479 1.19 3.512-0.01 1.04-0.43 1.828-1.261 2.367v0c-0.963 0.624-2.042 0.546-3.238-0.233-1.202-0.775-2.495-2.231-3.88-4.368v0c-0.457-0.705-0.89-1.424-1.301-2.159-0.411-0.734-0.808-1.498-1.192-2.291v0c-0.298 0.168-0.605 0.323-0.92 0.462-0.31 0.136-0.63 0.27-0.96 0.402v0c-0.124-0.229-0.226-0.456-0.306-0.68-0.084-0.23-0.145-0.455-0.182-0.675v0c0.333-0.126 0.643-0.25 0.931-0.372 0.293-0.125 0.574-0.262 0.843-0.412v0c-0.197-0.442-0.397-0.926-0.6-1.453-0.203-0.527-0.444-1.193-0.721-1.998v0c0.332-0.191 0.672-0.362 1.021-0.515 0.347-0.143 0.696-0.264 1.048-0.361v0c0.172 0.604 0.352 1.183 0.539 1.736 0.184 0.548 0.381 1.071 0.59 1.571v0c0.624-0.38 1.221-0.771 1.791-1.173 0.564-0.398 1.106-0.798 1.626-1.2v0c0.097 0.149 0.188 0.334 0.274 0.555 0.088 0.211 0.169 0.443 0.244 0.696v0c-0.526 0.431-1.074 0.847-1.644 1.248-0.575 0.405-1.161 0.789-1.756 1.15v0c0.365 0.789 0.759 1.579 1.181 2.371 0.423 0.791 0.867 1.545 1.331 2.261v0c1.051 1.622 1.971 2.778 2.761 3.471 0.784 0.696 1.397 0.901 1.839 0.615v0c0.418-0.271 0.56-0.737 0.424-1.398-0.135-0.661-0.559-1.554-1.271-2.678z" fill="#000000" data-fill-palette-color="primary"></path><path d="M224.766 247.329v0c-1.04 0.832-2.231 0.954-3.575 0.368-1.339-0.581-2.795-1.856-4.369-3.823v0c-0.797-0.997-1.514-2.063-2.151-3.198-0.636-1.135-1.012-2.019-1.126-2.653v0c0.094-0.145 0.196-0.279 0.308-0.403 0.111-0.124 0.23-0.237 0.358-0.339v0c0.128-0.102 0.254-0.185 0.377-0.25 0.124-0.064 0.26-0.107 0.408-0.129v0c0.333 0.853 0.792 1.766 1.379 2.74 0.596 0.975 1.303 1.974 2.122 2.997v0c1.104 1.381 2.171 2.386 3.198 3.015 1.024 0.624 1.807 0.718 2.351 0.284v0c0.666-0.533 0.766-1.452 0.299-2.757-0.472-1.301-1.448-2.876-2.927-4.727v0c-0.456-0.57-0.961-1.142-1.515-1.713-0.552-0.581-0.954-0.968-1.204-1.161v0c0.132-0.272 0.334-0.56 0.606-0.866 0.268-0.31 0.543-0.578 0.826-0.804v0c0.329 0.27 0.696 0.619 1.1 1.048 0.4 0.423 0.787 0.87 1.162 1.339v0c2.038 2.549 3.266 4.766 3.683 6.653 0.422 1.883-0.015 3.343-1.31 4.379z" fill="#000000" data-fill-palette-color="primary"></path><path d="M231.109 235.212v0c0.608 0.609 1.308 1.28 2.099 2.015 0.791 0.744 1.38 1.27 1.766 1.58v0c-0.116 0.222-0.271 0.468-0.464 0.738-0.193 0.27-0.399 0.514-0.616 0.731v0c-1.443-1.261-3.271-2.937-5.486-5.029-2.215-2.092-4.07-3.886-5.566-5.384v0c0.063-0.188 0.167-0.393 0.312-0.615 0.14-0.217 0.307-0.422 0.5-0.615v0c0.13-0.13 0.263-0.248 0.399-0.355 0.13-0.111 0.275-0.217 0.434-0.318v0c0.207 0.256 0.548 0.654 1.021 1.195 0.478 0.546 0.789 0.901 0.933 1.065v0c-0.284-1.135-0.361-2.115-0.23-2.94 0.126-0.821 0.455-1.496 0.986-2.027v0c0.802-0.801 1.678-1.092 2.629-0.875 0.956 0.223 2.058 0.96 3.308 2.211v0c1.004 1.005 2.048 2.215 3.134 3.63 1.09 1.41 1.901 2.56 2.431 3.448v0c-0.222 0.193-0.481 0.393-0.775 0.601-0.299 0.203-0.584 0.376-0.855 0.521v0c-1.032-1.497-1.987-2.787-2.865-3.869-0.873-1.087-1.742-2.062-2.606-2.927v0c-0.811-0.812-1.496-1.295-2.055-1.449-0.56-0.164-1.064-0.022-1.514 0.426v0c-0.454 0.454-0.679 1.127-0.675 2.02 0.009 0.898 0.245 1.902 0.708 3.013v0c0.902 0.952 1.558 1.647 1.969 2.086 0.41 0.44 0.77 0.814 1.078 1.123z" fill="#000000" data-fill-palette-color="primary"></path><path d="M239.626 222.181v0c1.304 1.025 2.477 1.644 3.519 1.854 1.032 0.212 1.79 0.009 2.275-0.608v0c0.371-0.472 0.451-1.065 0.239-1.779-0.212-0.714-0.733-1.592-1.562-2.635v0c-1.095-0.817-2.138-1.516-3.132-2.098-0.993-0.581-1.965-1.063-2.915-1.445v0c-0.144 0.095-0.286 0.209-0.426 0.343-0.14 0.133-0.273 0.281-0.399 0.441v0c-0.654 0.832-0.781 1.739-0.382 2.723 0.39 0.984 1.318 2.052 2.783 3.204zM246.082 217.864v0c2.893 2.274 4.809 4.393 5.749 6.357 0.936 1.969 0.88 3.619-0.166 4.95v0c-0.722 0.918-1.627 1.435-2.717 1.55-1.09 0.116-2.229-0.163-3.419-0.838v0c0.017-0.342 0.073-0.689 0.167-1.041 0.089-0.356 0.214-0.692 0.376-1.008v0c1.128 0.653 2.046 1.005 2.752 1.057 0.705 0.042 1.277-0.216 1.716-0.775v0c0.565-0.719 0.512-1.69-0.159-2.912-0.671-1.223-1.942-2.639-3.813-4.248v0c0.367 0.749 0.543 1.425 0.528 2.03-0.015 0.605-0.219 1.157-0.612 1.656v0c-0.857 1.09-2.019 1.574-3.487 1.453-1.468-0.121-3.026-0.829-4.674-2.125v0c-1.75-1.376-2.821-2.852-3.214-4.429-0.397-1.572-0.077-3.017 0.962-4.337v0c0.325-0.413 0.709-0.802 1.151-1.166 0.444-0.355 0.907-0.646 1.391-0.874v0c1.097 0.515 2.34 1.21 3.728 2.084 1.388 0.874 2.635 1.746 3.741 2.616z" fill="#000000" data-fill-palette-color="primary"></path><path d="M245.472 189.732v0c1.77 0.431 3.36 0.903 4.771 1.416 1.408 0.504 2.727 1.076 3.956 1.718v0c3.668 1.914 6.141 3.844 7.42 5.79 1.282 1.94 1.396 3.921 0.341 5.943v0c-0.793 1.519-2.089 2.283-3.887 2.291-1.793 0.012-4.127-0.733-7.002-2.233v0c-1.489-0.777-2.987-1.713-4.495-2.808-1.502-1.092-2.667-2.069-3.494-2.933v0c0.021-0.158 0.073-0.347 0.156-0.565 0.086-0.224 0.177-0.428 0.272-0.609v0c0.076-0.145 0.156-0.277 0.24-0.394 0.078-0.121 0.166-0.229 0.262-0.326v0c1.297 1.131 2.586 2.143 3.869 3.036 1.279 0.899 2.518 1.661 3.716 2.286v0c2.669 1.393 4.712 2.178 6.129 2.355 1.414 0.183 2.381-0.224 2.903-1.223v0c0.616-1.18 0.371-2.467-0.735-3.86-1.103-1.384-2.955-2.755-5.558-4.114v0c-1.568-0.818-3.096-1.504-4.586-2.058-1.493-0.548-3.156-1.035-4.99-1.461v0c0.055-0.341 0.145-0.698 0.27-1.072 0.123-0.383 0.27-0.776 0.442-1.178z" fill="#000000" data-fill-palette-color="secondary"></path><path d="M260.649 176.903v0c1.655 0.625 3.292 1.095 4.91 1.41 1.619 0.315 3.312 0.512 5.079 0.59v0c-0.023 0.231-0.066 0.487-0.129 0.769-0.059 0.291-0.132 0.583-0.222 0.878v0c-0.685 0.034-1.357 0.041-2.014 0.019-0.658-0.021-1.325-0.06-2-0.116v0c0.955 1.009 1.57 2.01 1.843 3.003 0.267 0.991 0.213 2.021-0.163 3.09v0c-0.543 1.546-1.716 2.516-3.519 2.91-1.794 0.39-3.963 0.138-6.507-0.755v0c-3.253-1.143-5.677-2.689-7.272-4.638-1.595-1.949-2.036-3.939-1.323-5.968v0c0.491-1.398 1.416-2.3 2.774-2.705 1.36-0.412 2.971-0.291 4.833 0.362v0c-0.029 0.351-0.077 0.704-0.143 1.057-0.068 0.359-0.159 0.729-0.27 1.11v0c-1.617-0.525-2.918-0.685-3.902-0.48-0.99 0.202-1.645 0.757-1.964 1.665v0c-0.423 1.205 0.061 2.493 1.454 3.865 1.395 1.365 3.374 2.498 5.938 3.399v0c2.287 0.803 4.165 1.13 5.636 0.981 1.471-0.149 2.394-0.758 2.769-1.828v0c0.319-0.908 0.238-1.83-0.244-2.766-0.484-0.93-1.348-1.827-2.593-2.691v0c-0.521-0.103-1.072-0.224-1.653-0.364-0.583-0.132-1.206-0.297-1.867-0.493v0c0.038-0.334 0.102-0.702 0.193-1.104 0.097-0.4 0.216-0.8 0.356-1.2z" fill="#000000" data-fill-palette-color="secondary"></path><path d="M2.423 140.407c0-4.679 3.793-8.471 8.471-8.472 4.679 0 8.471 3.793 8.471 8.472 0 4.679-3.793 8.471-8.471 8.471-4.679 0-8.471-3.793-8.471-8.471z" fill="#000000" data-fill-palette-color="primary"></path><path d="M258.904 140.407c0-4.679 3.793-8.471 8.472-8.472 4.679 0 8.471 3.793 8.471 8.472 0 4.679-3.793 8.471-8.471 8.471-4.679 0-8.471-3.793-8.472-8.471z" fill="#000000" data-fill-palette-color="primary"></path></g><g id="text-1"></g></svg></g><g transform="matrix(1,0,0,1,53.1494936,291.65209458998714)"><svg viewBox="0 0 171.97061280000003 46.45514875973154" height="46.45514875973154" width="171.97061280000003"><g transform="matrix(1,0,0,1,0,0)"><svg width="171.97061280000003" viewBox="2.3 -31.4 114.45 32.199999999999996" height="46.45514875973154" data-palette-color="#f4a424"><g class="slogan-text-1" data-fill-palette-color="secondary" id="text-1"><path d="M13.3 0.4Q7.1 0.4 2.3-2.2L2.3-2.2 4.15-6.85Q8.35-4.6 13.65-4.6L13.65-4.6Q16.6-4.6 18.7-5.05L18.7-5.05Q19.2-6.35 19.2-8.15L19.2-8.15Q19.2-10.05 18-11.03 16.8-12 13.65-12.75L13.65-12.75Q10.3-13.55 8.1-14.58 5.9-15.6 4.6-17.43 3.3-19.25 3.3-22.2L3.3-22.2Q3.3-26.25 6-28.83 8.7-31.4 14.3-31.4L14.3-31.4Q17.45-31.4 19.63-30.83 21.8-30.25 23.65-29.2L23.65-29.2 23.65-27.4Q23.65-26.25 23.4-24.7 23.15-23.15 22.8-22.2L22.8-22.2 18.55-22.2 18-26.25Q16-26.55 14.05-26.55L14.05-26.55Q11.3-26.55 10.05-25.6 8.8-24.65 8.8-22.5L8.8-22.5Q8.8-20.65 10.13-19.7 11.45-18.75 15.05-17.95L15.05-17.95Q20.1-16.85 22.4-14.88 24.7-12.9 24.7-8.85L24.7-8.85Q24.7-4.65 22-2.13 19.3 0.4 13.3 0.4L13.3 0.4Z" fill="#000000" data-fill-palette-color="primary"></path><path d="M54.5 0.8Q48.95 0.8 45.92-1.45 42.9-3.7 42.9-8L42.9-8Q42.9-11.45 44.55-13.5 46.2-15.55 49.5-16.8L49.5-16.8 49.5-17.2Q48.15-18.55 47.5-19.8 46.85-21.05 46.85-22.7L46.85-22.7Q46.85-26.4 49.35-28.35 51.85-30.3 56.3-30.3L56.3-30.3Q59.55-30.3 61.77-29.33 64-28.35 65.2-26.9L65.2-26.9 65.2-25.05Q65.2-24.15 65.02-22.98 64.85-21.8 64.55-21.1L64.55-21.1 60.25-21.1 59.8-24.9Q58.4-25.45 56.2-25.45L56.2-25.45Q54.1-25.45 53.2-24.75 52.3-24.05 52.3-22.5L52.3-22.5Q52.3-21.1 52.72-20.3 53.15-19.5 54.4-18.35L54.4-18.35 61.95-11.3Q62.45-13.1 62.9-16.3L62.9-16.3 68-15.2Q67.6-13 67.2-11.35 66.8-9.7 66.3-8.15L66.3-8.15 72.25-2.25 68.4 0.45 65-3.35 64.6-3.35Q64.1-1.6 63.4-0.6L63.4-0.6Q60.3 0.8 54.5 0.8L54.5 0.8ZM54.65-4.05Q57.4-4.05 59.5-4.55L59.5-4.55Q59.95-5.3 60.1-6.4L60.1-6.4 52.55-13.55Q50.35-12.85 49.35-11.65 48.35-10.45 48.35-8.25L48.35-8.25Q48.35-6.05 49.95-5.05 51.55-4.05 54.65-4.05L54.65-4.05Z" fill="#000000" data-fill-palette-color="secondary"></path><path d="M102.65 0.4Q96.2 0.4 92.92-3.48 89.65-7.35 89.65-14.9L89.65-14.9Q89.65-23.25 93.05-27.33 96.45-31.4 103.7-31.4L103.7-31.4Q116.75-31.4 116.75-16.05L116.75-16.05Q116.75-7.75 113.32-3.68 109.9 0.4 102.65 0.4L102.65 0.4ZM103.5-4.65Q107.05-4.65 109.25-5.55L109.25-5.55Q111.25-10.1 111.25-15.2L111.25-15.2Q111.25-19.1 110.5-21.5 109.75-23.9 107.92-25.1 106.1-26.3 102.85-26.3L102.85-26.3Q99.15-26.3 96.95-25.4L96.95-25.4Q95.1-21.2 95.1-15.75L95.1-15.75Q95.1-11.85 95.87-9.43 96.65-7 98.47-5.83 100.3-4.65 103.5-4.65L103.5-4.65Z" fill="#000000" data-fill-palette-color="tertiary"></path></g></svg></g></svg></g></svg></g></svg></g><g></g></svg></g><defs></defs></svg><rect width="230.4460774873394" height="280" fill="none" stroke="none" visibility="hidden"></rect></g></svg></g></svg>