<svg xmlns="http://www.w3.org/2000/svg" version="1.1" xmlns:xlink="http://www.w3.org/1999/xlink" width="1500" height="310" viewBox="0 0 1500 310"><svg xml:space="preserve" width="1500" height="310" data-version="2" data-id="lg_QjWOSD1uBEFOpN5zX5" viewBox="0 0 358 310" x="0" y="0"><rect width="100%" height="100%" fill="transparent"></rect><path fill="#0074d9" stroke="#ff851b" stroke-width="5" d="m352.194 254.209-346.388.642"></path><circle r="114.693" fill="#fff" fill-rule="evenodd" stroke="#0074d9" stroke-width="3.5" paint-order="stroke" transform="translate(179 119.34)"></circle><path fill="#0074d9" d="M214.721 79.091c-.189-2.457 1.89-4.725 4.347-4.914l25.137-1.323c1.323 0 2.646.378 3.591 1.323.945.945 1.323 2.268 1.323 3.591l-1.323 25.137c-.189 2.457-2.079 4.347-4.536 4.347h-.189c-2.457-.189-4.536-2.268-4.347-4.914l.756-20.034-20.034 1.134a4.375 4.375 0 0 1-4.725-4.347m39.879 89.775H114.362l20.412-20.412 7.938 7.938c1.701 1.701 4.725 1.701 6.615 0l22.491-22.491 7.938 7.938c.945.945 2.079 1.323 3.213 1.323s2.457-.567 3.213-1.323l48.762-48.762c1.89-1.89 1.89-4.725 0-6.615s-4.725-1.89-6.615 0l-45.36 45.36-7.938-7.938c-.945-.945-2.079-1.323-3.213-1.323s-2.457.567-3.213 1.323l-22.491 22.68-7.938-7.938c-.945-.945-2.079-1.323-3.213-1.323s-2.457.567-3.213 1.323l-23.814 23.625V75.878c0-2.457-2.079-4.536-4.536-4.536-2.457 0-4.536 2.079-4.536 4.536v97.524c0 2.457 2.079 4.536 4.536 4.536h151.2c2.457 0 4.536-2.079 4.536-4.536.189-2.457-1.89-4.536-4.536-4.536"></path><path fill="#0074d9" d="M154.95 117.475c-10.92 0-19.77-8.88-19.77-19.77 0-9.33 6.48-17.34 15.54-19.29l-3.27-6.57c-.09-.18-.09-.42.03-.57.12-.18.3-.27.51-.27h13.95c.21 0 .39.12.51.27.12.18.12.39.03.57l-3.3 6.57a19.728 19.728 0 0 1 15.54 19.32c0 10.86-8.88 19.74-19.77 19.74m-6-45.3 3.21 6.39q.135.27 0 .54a.58.58 0 0 1-.42.33 18.51 18.51 0 0 0-15.36 18.27c0 10.23 8.34 18.57 18.57 18.57s18.57-8.34 18.57-18.57c0-9.03-6.45-16.71-15.33-18.27-.18-.03-.36-.15-.42-.33q-.135-.27 0-.54l3.18-6.39z"></path><path fill="#0074d9" d="M154.95 107.245a9.49 9.49 0 0 1-6.75-2.79 9.56 9.56 0 0 1 0-13.5 9.56 9.56 0 0 1 13.5 0c.24.24.24.6 0 .84a.58.58 0 0 1-.84 0 8.34 8.34 0 0 0-11.82 0 8.34 8.34 0 0 0 0 11.82 8.34 8.34 0 0 0 11.82 0l.84.84a9.54 9.54 0 0 1-6.75 2.79"></path><path fill="#0074d9" d="M153.48 96.475h-10.5c-.33 0-.6-.27-.6-.6s.27-.6.6-.6h10.5c.33 0 .6.27.6.6s-.27.6-.6.6m0 3.6h-10.5c-.33 0-.6-.27-.6-.6s.27-.6.6-.6h10.5c.33 0 .6.27.6.6s-.27.6-.6.6"></path><path d="m89.06 288.62-.22 2.14h-4.26l-.12 3.68h3.82l-.22 2.12H84.4l-.02.66.24 5.2h-2.8l.24-4.86-.24-8.94zm1.16 4.12 2.68-.5-.24 4.98.22 4.7-2.68.5.24-4.86zm-.14-3.43q0-.67.52-1.2.52-.53 1.2-.53.68 0 1.04.37t.36 1.11q0 .74-.51 1.27t-1.18.53q-.67 0-1.05-.44t-.38-1.11m10.82 8.05q0-1.38-.24-1.84-.24-.46-1.12-.46-.88 0-2 .7v1.46l.22 4.7-2.68.5.24-4.86q-.08-2.68-.44-4.8l2.42-.52q.14 1.16.2 2.26.3-.4.68-.79.38-.39 1.2-.88t1.73-.49q.91 0 1.53.71t.62 1.93l-.12 2.24.22 4.8-2.7.5zm6.66 5.06q-1.18 0-1.93-.75t-.75-2.02q0-1.27 1.16-2.2 1.16-.93 2.82-.93h1.36v-.34q0-.98-.4-1.34-.4-.36-1.5-.36-.46 0-1.09.19-.63.19-1.41.59l-.58-1.58q.86-.6 2.09-1.08 1.23-.48 2.03-.48 3.14 0 3.14 3.04v3.92q0 1.12.7 2.5l-2.12.9q-.5-.96-.74-1.72-1.1 1.66-2.78 1.66m.84-2.04q.8 0 1.82-.82v-1.34q-1.06-.24-1.72-.24-1.26 0-1.26 1.12 0 .58.32.93.32.35.84.35m12.34-3.02q0-1.38-.24-1.84-.24-.46-1.12-.46-.88 0-2 .7v1.46l.22 4.7-2.68.5.24-4.86q-.08-2.68-.44-4.8l2.42-.52q.14 1.16.2 2.26.3-.4.68-.79.38-.39 1.2-.88t1.73-.49q.91 0 1.53.71t.62 1.93l-.12 2.24.22 4.8-2.7.5zm3.98 5.18.34-2.1 4.22-6.02-4.42.3.46-2.52 3.42.22 3.34-.24-.34 2.08-4.24 6.04 4.86-.28-.44 2.52-3.4-.22zm11.02-.12q-1.18 0-1.93-.75t-.75-2.02q0-1.27 1.16-2.2 1.16-.93 2.82-.93h1.36v-.34q0-.98-.4-1.34-.4-.36-1.5-.36-.46 0-1.09.19-.63.19-1.41.59l-.58-1.58q.86-.6 2.09-1.08 1.23-.48 2.03-.48 3.14 0 3.14 3.04v3.92q0 1.12.7 2.5l-2.12.9q-.5-.96-.74-1.72-1.1 1.66-2.78 1.66m.84-2.04q.8 0 1.82-.82v-1.34q-1.06-.24-1.72-.24-1.26 0-1.26 1.12 0 .58.32.93.32.35.84.35m6.16-7.64h1.16v-2.18l2.7-.52-.26 2.7h2.42l-.22 1.64h-2.28l-.1 4.18q0 .94.18 1.25.18.31.66.31.48 0 1.28-.22l.12 1.42q-1.32 1.1-2.32 1.1-1 0-1.64-.73-.64-.73-.64-1.91l.12-2.24-.02-3.16h-1.38zm11.08 7.64q.58 0 1.22-.3t1-.6l.36-.3.92 1.12q-.2.34-.62.78t-.85.75q-.43.31-1.14.56-.71.25-1.47.25-1.62 0-2.64-1.23t-1.02-3.17q0-2.44 1.42-4.28 1.42-1.84 3.32-1.84 1.46 0 2.27.82t.81 2.3q0 .88-.3 2l-.4.42-5 .46q.34 2.26 2.12 2.26m0-6.2q-.88 0-1.48.71t-.7 1.81l3.4-.42q.06-.46.06-.76 0-1.34-1.28-1.34m5.32-6.74 2.74-.5-.26 10.28.22 4.7-2.7.5.24-4.86zm5.06 5.3 2.68-.5-.24 4.98.22 4.7-2.68.5.24-4.86zm-.14-3.43q0-.67.52-1.2.52-.53 1.2-.53.68 0 1.04.37t.36 1.11q0 .74-.51 1.27t-1.18.53q-.67 0-1.05-.44t-.38-1.11m8.62 11.07q.58 0 1.22-.3t1-.6l.36-.3.92 1.12q-.2.34-.62.78t-.85.75q-.43.31-1.14.56-.71.25-1.47.25-1.62 0-2.64-1.23t-1.02-3.17q0-2.44 1.42-4.28 1.42-1.84 3.32-1.84 1.46 0 2.27.82t.81 2.3q0 .88-.3 2l-.4.42-5 .46q.34 2.26 2.12 2.26m0-6.2q-.88 0-1.48.71t-.7 1.81l3.4-.42q.06-.46.06-.76 0-1.34-1.28-1.34m5.1-1.42 2.42-.52q.18 1.54.24 2.92 1.82-2.82 3.42-2.82l-.22 3.12q-1.16 0-1.83.21-.67.21-1.37.83v.72l.22 4.7-2.68.5.24-4.86q-.08-2.68-.44-4.8m20.94 3.14h-2.34q.26 1.62.26 2.19 0 .57-.06.87l2.26 2.22-1.64 1.46q-.68-.74-1.6-1.7-.66.78-1.6 1.24-.94.46-1.96.46-1.82 0-3.02-.99t-1.2-2.49q0-2.02 2.36-3.4-1.6-1.66-1.6-3.01 0-1.35 1.2-2.34 1.2-.99 2.9-.99 1.04 0 1.93.22.89.22 1.27.42l.36.22-1.24 2.36q-.52-.44-1.29-.79-.77-.35-1.46-.35t-1.08.32q-.39.32-.39.82 0 .7.48 1.28.48.58 2.3 2.18l1.38 1.28q-.1-1.04-.52-3.04l.26-.26h4.2zm-7.64.74q-.94.9-.94 1.82t.65 1.54q.65.62 1.85.62 1.2 0 1.84-.82-1.3-1.32-2.44-2.34-.48-.36-.96-.82m13.36-8.02h4.34q1.92 0 3.04.87t1.12 2.33q0 2.34-1.92 3.26 2.6.9 2.6 3.32 0 1.82-1.56 3.03-1.56 1.21-3.92 1.21-1.24 0-3.7-.22l.24-4.86zm4.08 7.86h-1.62l-.02.74.14 3.26q1.16.1 1.78.1 1.06 0 1.65-.53.59-.53.59-1.55t-.6-1.52q-.6-.5-1.92-.5m-.46-5.84h-.98l-.12 3.9h1.3q1.02 0 1.56-.55t.54-1.57q0-1.78-2.3-1.78m11.14 9.74q.58 0 1.22-.3t1-.6l.36-.3.92 1.12q-.2.34-.62.78t-.85.75q-.43.31-1.14.56-.71.25-1.47.25-1.62 0-2.64-1.23t-1.02-3.17q0-2.44 1.42-4.28 1.42-1.84 3.32-1.84 1.46 0 2.27.82t.81 2.3q0 .88-.3 2l-.4.42-5 .46q.34 2.26 2.12 2.26m0-6.2q-.88 0-1.48.71t-.7 1.81l3.4-.42q.06-.46.06-.76 0-1.34-1.28-1.34m5.1-1.42 2.42-.52q.18 1.54.24 2.92 1.82-2.82 3.42-2.82l-.22 3.12q-1.16 0-1.83.21-.67.21-1.37.83v.72l.22 4.7-2.68.5.24-4.86q-.08-2.68-.44-4.8m9.34 9.66q-1.18 0-1.93-.75t-.75-2.02q0-1.27 1.16-2.2 1.16-.93 2.82-.93h1.36v-.34q0-.98-.4-1.34-.4-.36-1.5-.36-.46 0-1.09.19-.63.19-1.41.59l-.58-1.58q.86-.6 2.09-1.08 1.23-.48 2.03-.48 3.14 0 3.14 3.04v3.92q0 1.12.7 2.5l-2.12.9q-.5-.96-.74-1.72-1.1 1.66-2.78 1.66m.84-2.04q.8 0 1.82-.82v-1.34q-1.06-.24-1.72-.24-1.26 0-1.26 1.12 0 .58.32.93.32.35.84.35m6.16-7.64h1.16v-2.18l2.7-.52-.26 2.7h2.42l-.22 1.64h-2.28l-.1 4.18q0 .94.18 1.25.18.31.66.31.48 0 1.28-.22l.12 1.42q-1.32 1.1-2.32 1.1-1 0-1.64-.73-.64-.73-.64-1.91l.12-2.24-.02-3.16h-1.38zm9.88 9.68q-1.08 0-1.75-.71-.67-.71-.67-1.87l.12-2.3-.22-4.8 2.68-.5-.26 6.08q0 .86.31 1.26t.99.4q.68 0 1.88-.68v-1.2l-.22-5.26 2.7-.5-.24 5 .02 1.64q0 1.28.66 2.58l-2.08.92q-.66-1.3-.8-2.08-1.8 2.02-3.12 2.02m13.6-5.06q0-1.38-.24-1.84-.24-.46-1.12-.46-.88 0-2 .7v1.46l.22 4.7-2.68.5.24-4.86q-.08-2.68-.44-4.8l2.42-.52q.14 1.16.2 2.26.3-.4.68-.79.38-.39 1.2-.88t1.73-.49q.91 0 1.53.71t.62 1.93l-.12 2.24.22 4.8-2.7.5zm3.96 7.04q0-1.76 3.28-2.76-.78-.4-.78-1.04 0-.26.2-.52t.58-.54v-.16q-1.44 0-2.29-.8-.85-.8-.85-2.14 0-1.74 1.42-3.03 1.42-1.29 3.36-1.29.5 0 1.46.2t1.88.2h1.54l-.2 1.74-1.5-.18q.2.58.2 1.32 0 .74-.35 1.47t-.84 1.17q-.49.44-.98.77t-.84.58q-.35.25-.35.45 0 .38.8.66 2.12.86 2.87 1.46t.75 1.48q0 1.48-1.49 2.43-1.49.95-3.55.95-2.06 0-3.19-.66t-1.13-1.76m6.04-8.4q0-.98-.44-1.44-.44-.46-1.38-.46-1.82 0-1.82 1.79t1.94 1.79q1.7 0 1.7-1.68m.72 7.74q0-.36-.38-.67-.38-.31-1.36-.73-1.46.4-2.01.74-.55.34-.55.84 0 .5.55.81.55.31 1.53.31t1.6-.36q.62-.36.62-.94m-120.31-20.02-2.88.44-.98-3.9h-4.78l-1.06 3.8-2.56-.2 1.76-4.86 2.68-8.6 3.58-.26 2.58 8.56zm-4.46-5.58-1.58-5.4h-.26l-1.72 5.4zm5.92-9.06 2.74-.5-.26 10.28.22 4.7-2.7.5.24-4.86zm11.02-.32-.62 2.28q-.74-.18-1.34-.18-.6 0-.87.36t-.27 1.26l-.02 1.9h2.16l-.22 1.64h-1.94l-.02 2.84.22 4.7-2.7.5.24-4.86-.08-3.18h-1.32l.22-1.64h1.06l-.02-1.52q0-1.78 1.1-3.03 1.1-1.25 2.68-1.25.84 0 1.74.18"></path><path d="m169.97 288.46-2.58-.54 2.06-4.62-1.48-4.04-2.02-4.86 2.66-.5 1.28 4.26.66 2.02h.26l.48-1.46 1.44-4.84 2.46.3-3.54 9.3zm5.84-8.58q0-2.56 1.38-4.34 1.38-1.78 3.23-1.78t2.88 1.2q1.03 1.2 1.03 3.18 0 2.64-1.33 4.39-1.33 1.75-3.35 1.75-1.66 0-2.75-1.25t-1.09-3.15m6.28-.7q0-2.9-1.98-2.9-2.06 0-2.06 2.72 0 1.42.58 2.22.58.8 1.53.8.95 0 1.44-.73t.49-2.11m6.36 4.88q-1.08 0-1.75-.71-.67-.71-.67-1.87l.12-2.3-.22-4.8 2.68-.5-.26 6.08q0 .86.31 1.26t.99.4q.68 0 1.88-.68v-1.2l-.22-5.26 2.7-.5-.24 5 .02 1.64q0 1.28.66 2.58l-2.08.92q-.66-1.3-.8-2.08-1.8 2.02-3.12 2.02m13.6-5.06q0-1.38-.24-1.84-.24-.46-1.12-.46-.88 0-2 .7v1.46l.22 4.7-2.68.5.24-4.86q-.08-2.68-.44-4.8l2.42-.52q.14 1.16.2 2.26.3-.4.68-.79.38-.39 1.2-.88t1.66-.49q.84 0 1.42.54t.74 1.48q1.66-2.02 3.36-2.02 1.06 0 1.68.71.62.71.62 1.93l-.12 2.24.22 4.8-2.7.5.24-5.16q0-1.38-.24-1.84-.24-.46-1.1-.46-.86 0-1.94.66l-.08 1.5.22 4.8-2.7.5zm10.26-4.62 2.68-.5-.24 4.98.22 4.7-2.68.5.24-4.86zm-.14-3.43q0-.67.52-1.2.52-.53 1.2-.53.68 0 1.04.37t.36 1.11q0 .74-.51 1.27t-1.18.53q-.67 0-1.05-.44t-.38-1.11"></path></svg></svg>